<svg width="16" height="17" viewBox="0 0 16 17" fill="none" xmlns="http://www.w3.org/2000/svg">
<g clip-path="url(#clip0_314_50818)">
<path fill-rule="evenodd" clip-rule="evenodd" d="M10.6053 16.5H5.39474C3.79626 16.5 2.5 15.22 2.5 13.6429V3.35714C2.5 1.78 3.79626 0.5 5.39474 0.5H10.6053C12.2037 0.5 13.5 1.78 13.5 3.35714V13.6429C13.5 15.22 12.2037 16.5 10.6053 16.5ZM5.39474 15.3571H10.6053C11.5646 15.3571 12.3421 14.5914 12.3421 13.6429V3.35714C12.3421 2.40857 11.5646 1.64286 10.6053 1.64286H5.39474C4.43542 1.64286 3.65789 2.40857 3.65789 3.35714V13.6429C3.65789 14.5914 4.43542 15.3571 5.39474 15.3571ZM4.81578 13.643C4.81578 13.3287 5.07515 13.0715 5.39473 13.0715H10.6053C10.9248 13.0715 11.1842 13.3287 11.1842 13.643C11.1842 13.9572 10.9248 14.2144 10.6053 14.2144H5.39473C5.07515 14.2144 4.81578 13.9572 4.81578 13.643Z" fill="#626FA1"/>
</g>
<defs>
<clipPath id="clip0_314_50818">
<rect width="16" height="16" fill="white" transform="translate(0 0.5)"/>
</clipPath>
</defs>
</svg>
