<svg width="16" height="17" viewBox="0 0 16 17" fill="none" xmlns="http://www.w3.org/2000/svg">
<g clip-path="url(#clip0_314_50812)">
<path d="M10.8571 7.35714C10.2286 7.35714 9.71429 7.87143 9.71429 8.5C9.71429 9.12857 10.2286 9.64286 10.8571 9.64286C11.4857 9.64286 12 9.12857 12 8.5C12 7.87143 11.4857 7.35714 10.8571 7.35714Z" fill="#626FA1"/>
<path fill-rule="evenodd" clip-rule="evenodd" d="M13.1429 16.5C14.72 16.5 16 15.22 16 13.6429V3.35714C16 1.78 14.72 0.5 13.1429 0.5H2.85714C1.28 0.5 0 1.78 0 3.35714V13.6429C0 15.22 1.28 16.5 2.85714 16.5H13.1429ZM14.8571 3.35714V5.07143H10.2857C8.70857 5.07143 7.42857 6.35143 7.42857 7.92857V9.07143C7.42857 10.6486 8.70857 11.9286 10.2857 11.9286H14.8571V13.6429C14.8571 14.5914 14.0914 15.3571 13.1429 15.3571H2.85714C1.90857 15.3571 1.14286 14.5914 1.14286 13.6429V3.35714C1.14286 2.40857 1.90857 1.64286 2.85714 1.64286H13.1429C14.0914 1.64286 14.8571 2.40857 14.8571 3.35714ZM10.2857 6.21429H14.8571V10.7857H10.2857C9.33714 10.7857 8.57143 10.02 8.57143 9.07143V7.92857C8.57143 6.98 9.33714 6.21429 10.2857 6.21429Z" fill="#626FA1"/>
</g>
<defs>
<clipPath id="clip0_314_50812">
<rect width="16" height="16" fill="white" transform="translate(0 0.5)"/>
</clipPath>
</defs>
</svg>
