<svg width="16" height="17" viewBox="0 0 16 17" fill="none" xmlns="http://www.w3.org/2000/svg">
<path fill-rule="evenodd" clip-rule="evenodd" d="M16 4.41667V12.5833C16 14.1933 14.72 15.5 13.1429 15.5H2.85714C1.28 15.5 0 14.1933 0 12.5833V4.41667C0 2.80667 1.28 1.5 2.85714 1.5H13.1429C14.72 1.5 16 2.80667 16 4.41667ZM14.8571 8.5V6.16667H1.14286V8.5H14.8571ZM14.8571 9.66667H1.14286V12.5833C1.14286 13.5517 1.90857 14.3333 2.85714 14.3333H13.1429C14.0914 14.3333 14.8571 13.5517 14.8571 12.5833V9.66667ZM14.8571 4.41667V5H1.14286V4.41667C1.14286 3.44833 1.90857 2.66667 2.85714 2.66667H13.1429C14.0914 2.66667 14.8571 3.44833 14.8571 4.41667Z" fill="#626FA1"/>
</svg>
