<svg width="29" height="31" viewBox="0 0 29 31" fill="none" xmlns="http://www.w3.org/2000/svg">
<path d="M22.9811 15.7284C22.9825 17.7931 22.2794 19.792 20.9958 21.373C19.7122 22.954 17.9304 24.0157 15.9643 24.3709C13.9982 24.7262 11.974 24.3523 10.2483 23.3151C8.52259 22.2779 7.20607 20.644 6.53069 18.7011L1.6797 22.7157C3.18809 25.6819 5.61371 28.0397 8.56926 29.4127C11.5248 30.7857 14.8398 31.0947 17.985 30.2903C21.1302 29.4859 23.9242 27.6145 25.9208 24.975C27.9174 22.3355 29.0015 19.08 29 15.7284" fill="#00AC47"/>
<path d="M22.9811 15.7284C22.98 17.1243 22.6565 18.4997 22.0376 19.74C21.4186 20.9803 20.5221 22.0497 19.4228 22.859L24.2186 26.8279C25.7224 25.4273 26.9251 23.7155 27.7488 21.8035C28.5725 19.8914 28.9987 17.8218 29 15.7284" fill="#4285F4"/>
<path d="M6.01887 15.7284C6.02097 14.7143 6.19417 13.7083 6.53069 12.7557L1.6797 8.7412C0.576698 10.8935 0 13.2924 0 15.7284C0 18.1645 0.576698 20.5634 1.6797 22.7157L6.53069 18.7011C6.19417 17.7486 6.02097 16.7426 6.01887 15.7284Z" fill="#FFBA00"/>
<path d="M14.5 6.95491C16.2946 6.95543 18.0421 7.54868 19.488 8.64826L23.931 4.35851C22.2817 2.88745 20.3325 1.8207 18.229 1.23787C16.1254 0.655039 13.9218 0.571173 11.7825 0.992532C9.64324 1.41389 7.62358 2.32959 5.87424 3.6713C4.1249 5.01302 2.69105 6.74609 1.6797 8.7412L6.53069 12.7557C7.12231 11.0592 8.20461 9.59227 9.63047 8.55439C11.0563 7.51652 12.7565 6.95805 14.5 6.95491Z" fill="#EA4435"/>
<path d="M29 14.5964L29 15.7284L26.5377 19.6907H15.0472V13.4643H27.9057C28.1959 13.4643 28.4742 13.5836 28.6795 13.7959C28.8847 14.0082 29 14.2961 29 14.5964Z" fill="#4285F4"/>
</svg>
