<svg width="16" height="16" viewBox="0 0 16 16" fill="none" xmlns="http://www.w3.org/2000/svg">
<path fill-rule="evenodd" clip-rule="evenodd" d="M8.33818 15.3821V15.3875C8.14182 15.5375 7.85818 15.5375 7.66182 15.3875V15.3821H7.65636L7.64544 15.3714L7.6454 15.3714C7.62905 15.3607 7.61272 15.35 7.59637 15.3286C7.56457 15.3052 7.52408 15.2732 7.47279 15.2327C7.45371 15.2176 7.43312 15.2014 7.41093 15.1839C7.25821 15.0554 7.04001 14.8678 6.77819 14.6268C6.25455 14.15 5.5509 13.4643 4.85272 12.6286C3.46726 10.9893 2 8.68031 2 6.22675C2 3.04997 4.7 0.5 8 0.5C11.3 0.5 14 3.04997 14 6.22675C14 8.68031 12.5327 10.9893 11.1473 12.6286C10.4491 13.4643 9.74545 14.15 9.22181 14.6268C8.95999 14.8678 8.74179 15.0554 8.58907 15.1839C8.56688 15.2014 8.5463 15.2176 8.52722 15.2327C8.47592 15.2732 8.43543 15.3052 8.40363 15.3286C8.38728 15.35 8.37095 15.3607 8.3546 15.3714L8.35456 15.3714L8.34364 15.3821H8.33818ZM8 1.57143C5.27273 1.57143 3.09091 3.67139 3.09091 6.22675C3.09091 8.28924 4.35092 10.3518 5.69274 11.9482C6.35819 12.7357 7.01818 13.3893 7.52 13.8393C7.70545 14.0107 7.86909 14.1553 8 14.2678C8.13091 14.1553 8.29455 14.0107 8.48 13.8393C8.98182 13.3893 9.64181 12.7357 10.3073 11.9482C11.6491 10.3518 12.9091 8.28924 12.9091 6.22675C12.9091 3.67139 10.7273 1.57143 8 1.57143ZM5.22219 6.40741C5.22219 4.92519 6.42515 3.72222 7.90737 3.72222C9.3896 3.72222 10.5926 4.92519 10.5926 6.40741C10.5926 7.88963 9.3896 9.09259 7.90737 9.09259C6.42515 9.09259 5.22219 7.88963 5.22219 6.40741ZM7.90737 4.7963C7.01589 4.7963 6.29626 5.51593 6.29626 6.40741C6.29626 7.29889 7.01589 8.01852 7.90737 8.01852C8.79885 8.01852 9.51848 7.29889 9.51848 6.40741C9.51848 5.51593 8.79885 4.7963 7.90737 4.7963Z" fill="#4B94F7"/>
</svg>
