<svg width="16" height="16" viewBox="0 0 16 16" fill="none" xmlns="http://www.w3.org/2000/svg">
<path fill-rule="evenodd" clip-rule="evenodd" d="M16 11.5455V4.45455C16 2.82364 14.72 1.5 13.1429 1.5H2.85714C1.28 1.5 0 2.82364 0 4.45455V11.5455C0 13.1764 1.28 14.5 2.85714 14.5H13.1429C14.72 14.5 16 13.1764 16 11.5455ZM14.8571 5.07503V11.5455C14.8571 12.5264 14.0914 13.3182 13.1429 13.3182H2.85714C1.90857 13.3182 1.14286 12.5264 1.14286 11.5455V5.07503L6.39425 8.76821C7.36568 9.44776 8.63432 9.44776 9.60575 8.76821L14.8571 5.07503ZM14.7143 3.74548C14.4514 3.11912 13.8457 2.68182 13.1429 2.68182H2.85714C2.15429 2.68182 1.54857 3.11912 1.28571 3.74548L7.03432 7.78728C7.61718 8.20092 8.38282 8.20092 8.96568 7.78728L14.7143 3.74548Z" fill="#3786F1"/>
</svg>
