<svg width="340" height="169" viewBox="0 0 340 169" fill="none" xmlns="http://www.w3.org/2000/svg">
<mask id="path-1-inside-1_295_6887" fill="white">
<path d="M198.472 0C230.754 46.1757 243.031 105.874 226.998 164.508C210.965 223.141 170.028 268.259 118.753 291.54C86.4708 245.365 74.1946 185.666 90.2274 127.032C106.26 68.399 147.197 23.2809 198.472 0Z"/>
<path d="M190.984 27.3836C220.223 69.2052 231.341 123.275 216.82 176.379C202.299 229.484 165.222 270.348 118.783 291.433C89.5441 249.612 78.4255 195.542 92.9465 142.438C107.467 89.3329 144.545 48.4693 190.984 27.3836Z"/>
<path d="M118.783 291.433C160.933 272.295 194.586 235.206 207.766 187.005C220.946 138.805 210.854 89.7295 184.316 51.7704C142.165 70.9086 108.512 107.998 95.3324 156.198C82.1526 204.399 92.2445 253.474 118.783 291.433Z"/>
<path d="M178.132 74.3835C202.166 108.761 211.306 153.206 199.37 196.859C187.433 240.511 156.956 274.101 118.783 291.433C94.7485 257.056 85.6087 212.611 97.545 168.958C109.481 125.306 139.959 91.716 178.132 74.3835Z"/>
<path d="M165.523 120.497C184.451 147.571 191.649 182.573 182.249 216.951C172.848 251.329 148.846 277.783 118.783 291.433C99.8547 264.36 92.6569 229.357 102.057 194.979C111.458 160.601 135.46 134.147 165.523 120.497Z"/>
<path d="M159.704 141.78C176.275 165.483 182.576 196.127 174.346 226.225C166.117 256.323 145.103 279.483 118.783 291.433C102.211 267.73 95.9095 237.086 104.139 206.988C112.369 176.89 133.383 153.73 159.704 141.78Z"/>
<path d="M154.005 162.619C168.269 183.022 173.693 209.399 166.609 235.306C159.526 261.212 141.438 281.147 118.783 291.433C104.519 271.031 99.0945 244.654 106.178 218.747C113.262 192.841 131.35 172.906 154.005 162.619Z"/>
<path d="M147.943 184.789C159.752 201.68 164.243 223.518 158.378 244.966C152.513 266.414 137.539 282.917 118.783 291.433C106.974 274.542 102.483 252.705 108.348 231.257C114.212 209.809 129.187 193.305 147.943 184.789Z"/>
<path d="M171.828 97.4401C193.309 128.166 201.478 167.89 190.809 206.905C180.141 245.92 152.901 275.942 118.783 291.433C97.3015 260.708 89.1328 220.984 99.8011 181.969C110.469 142.953 137.709 112.931 171.828 97.4401Z"/>
<path d="M171.828 97.4401C193.309 128.166 201.478 167.89 190.809 206.905C180.141 245.92 152.901 275.942 118.783 291.433C97.3015 260.708 89.1328 220.984 99.8011 181.969C110.469 142.953 137.709 112.931 171.828 97.4401Z"/>
<path d="M33.3798 1.50383C85.0968 23.7428 126.903 68.0237 144.072 126.321C161.241 184.619 150.128 244.554 118.75 291.374C67.0326 269.135 25.2265 224.854 8.05719 166.556C-9.11214 108.259 2.00121 48.3236 33.3798 1.50383Z"/>
<path d="M41.3982 28.7306C88.2387 48.8725 126.103 88.978 141.653 141.778C157.203 194.579 147.138 248.863 118.718 291.267C71.8778 271.125 34.0138 231.02 18.4635 178.22C2.91309 125.419 12.9785 71.1355 41.3982 28.7306Z"/>
<path d="M48.5392 52.9776C91.0536 71.2593 125.421 107.661 139.535 155.585C153.649 203.509 144.513 252.779 118.718 291.267C76.2039 272.986 41.8368 236.584 27.7226 188.66C13.6085 140.736 22.7443 91.4661 48.5392 52.9776Z"/>
<path d="M55.1607 75.4612C93.6638 92.0179 124.788 124.985 137.571 168.387C150.353 211.789 142.079 256.41 118.718 291.267C80.2151 274.711 49.0906 241.744 36.3082 198.342C23.5258 154.94 31.7996 110.318 55.1607 75.4612Z"/>
<path d="M68.6639 121.31C98.987 134.349 123.499 160.312 133.566 194.493C143.633 228.675 137.116 263.816 118.718 291.267C88.3951 278.228 63.8832 252.266 53.8165 218.084C43.7497 183.903 50.2658 148.761 68.6639 121.31Z"/>
<path d="M74.896 142.471C101.444 153.887 122.904 176.617 131.717 206.543C140.53 236.468 134.826 267.234 118.718 291.267C92.1705 279.852 70.7105 257.122 61.8971 227.196C53.0838 197.271 58.7886 166.505 74.896 142.471Z"/>
<path d="M80.9981 163.191C103.849 173.017 122.321 192.582 129.907 218.341C137.493 244.099 132.583 270.581 118.718 291.267C95.8674 281.441 77.3955 261.877 69.8094 236.118C62.2234 210.36 67.1337 183.878 80.9981 163.191Z"/>
<path d="M87.4901 185.234C106.408 193.369 121.701 209.567 127.981 230.892C134.262 252.217 130.196 274.141 118.718 291.267C99.8001 283.133 84.5075 266.935 78.227 245.61C71.9465 224.285 76.0119 202.361 87.4901 185.234Z"/>
<path d="M61.9123 98.3856C96.3252 113.184 124.143 142.648 135.568 181.44C146.992 220.232 139.598 260.113 118.718 291.267C84.3052 276.469 56.4869 247.005 45.0624 208.213C33.6378 169.421 41.0327 129.54 61.9123 98.3856Z"/>
<path d="M61.9123 98.3856C96.3252 113.184 124.143 142.648 135.568 181.44C146.992 220.232 139.598 260.113 118.718 291.267C84.3052 276.469 56.4869 247.005 45.0624 208.213C33.6378 169.421 41.0327 129.54 61.9123 98.3856Z"/>
<path d="M118.741 291.371C115.556 235.081 136.485 177.835 180.92 136.418C225.356 94.9999 283.863 78.2049 339.684 85.4319C342.869 141.722 321.94 198.968 277.505 240.386C233.069 281.803 174.562 298.598 118.741 291.371Z"/>
<path d="M318.932 104.775C268.373 98.2297 215.383 113.441 175.138 150.953C134.892 188.466 115.937 240.314 118.821 291.296C169.379 297.841 222.37 282.63 262.615 245.118C302.86 207.605 321.816 155.758 318.932 104.775Z"/>
<path d="M300.451 122.002C254.562 116.061 206.466 129.867 169.937 163.915C133.409 197.963 116.204 245.022 118.821 291.296C164.71 297.237 212.807 283.43 249.335 249.382C285.864 215.335 303.068 168.275 300.451 122.002Z"/>
<path d="M118.822 291.296C116.451 249.388 132.032 206.769 165.114 175.934C198.196 145.099 241.754 132.595 283.313 137.975C285.684 179.883 270.102 222.502 237.02 253.337C203.939 284.173 160.381 296.676 118.822 291.296Z"/>
<path d="M118.821 291.296C116.954 258.291 129.225 224.727 155.278 200.443C181.332 176.158 215.636 166.311 248.366 170.549C250.233 203.553 237.962 237.118 211.908 261.402C185.855 285.686 151.551 295.533 118.821 291.296Z"/>
<path d="M118.822 291.296C117.187 262.401 127.93 233.015 150.739 211.755C173.549 190.494 203.582 181.873 232.237 185.583C233.871 214.478 223.128 243.863 200.318 265.124C177.509 286.385 147.476 295.006 118.822 291.296Z"/>
<path d="M216.443 200.304C191.779 197.11 165.928 204.531 146.295 222.831C126.661 241.131 117.415 266.425 118.822 291.296C143.486 294.489 169.336 287.069 188.97 268.768C208.603 250.468 217.85 225.175 216.443 200.304Z"/>
<path d="M199.642 215.964C179.222 213.32 157.821 219.464 141.566 234.614C125.312 249.765 117.657 270.705 118.822 291.296C139.241 293.94 160.642 287.796 176.897 272.646C193.151 257.495 200.807 236.555 199.642 215.964Z"/>
<path d="M265.84 154.262C228.695 149.453 189.764 160.629 160.197 188.188C130.629 215.748 116.703 253.84 118.822 291.296C155.966 296.105 194.897 284.929 224.465 257.369C254.032 229.81 267.958 191.718 265.84 154.262Z"/>
<path d="M265.84 154.262C228.695 149.453 189.764 160.629 160.197 188.188C130.629 215.748 116.703 253.84 118.822 291.296C155.966 296.105 194.897 284.929 224.465 257.369C254.032 229.81 267.958 191.718 265.84 154.262Z"/>
</mask>
<path d="M118.783 291.433L118.373 291.72L118.611 292.06L118.989 291.889L118.783 291.433ZM171.828 97.4401L172.238 97.1536L172 96.813L171.621 96.9848L171.828 97.4401ZM190.809 206.905L191.292 207.037L190.809 206.905ZM99.8011 181.969L100.283 182.1L99.8011 181.969ZM118.718 291.267L118.521 291.727L118.902 291.891L119.134 291.546L118.718 291.267ZM61.9123 98.3856L62.1098 97.9263L61.7282 97.7622L61.4969 98.1072L61.9123 98.3856ZM135.568 181.44L135.088 181.581L135.568 181.44ZM45.0624 208.213L44.5827 208.354L45.0624 208.213ZM118.822 291.296L118.322 291.324L118.346 291.739L118.757 291.792L118.822 291.296ZM265.84 154.262L266.339 154.234L266.315 153.819L265.904 153.766L265.84 154.262ZM160.197 188.188L160.537 188.554L160.197 188.188ZM224.465 257.369L224.124 257.004L224.465 257.369ZM171.418 97.7266C192.818 128.336 200.954 167.907 190.327 206.773L191.292 207.037C202.001 167.872 193.8 127.996 172.238 97.1536L171.418 97.7266ZM190.327 206.773C179.699 245.639 152.565 275.546 118.576 290.978L118.989 291.889C153.238 276.338 180.582 246.201 191.292 207.037L190.327 206.773ZM119.192 291.147C97.7929 260.538 89.6559 220.966 100.283 182.1L99.3188 181.837C88.6097 221.001 96.8102 260.878 118.373 291.72L119.192 291.147ZM100.283 182.1C110.911 143.234 138.046 113.328 172.035 97.8954L171.621 96.9848C137.373 112.535 110.028 142.672 99.3188 181.837L100.283 182.1ZM61.7147 98.8449C95.9967 113.587 123.707 142.938 135.088 181.581L136.048 181.299C124.579 142.359 96.6538 112.781 62.1098 97.9263L61.7147 98.8449ZM135.088 181.581C146.469 220.225 139.103 259.953 118.303 290.989L119.134 291.546C140.092 260.273 147.516 220.239 136.048 181.299L135.088 181.581ZM118.916 290.808C84.6338 276.066 56.9228 246.715 45.542 208.072L44.5827 208.354C56.051 247.294 83.9767 276.872 118.521 291.727L118.916 290.808ZM45.542 208.072C34.1612 169.428 41.5272 129.7 62.3276 98.664L61.4969 98.1072C40.5382 129.38 33.1145 169.414 44.5827 208.354L45.542 208.072ZM265.904 153.766C228.618 148.939 189.537 160.157 159.856 187.823L160.537 188.554C189.992 161.1 228.772 149.967 265.775 154.758L265.904 153.766ZM159.856 187.823C130.175 215.488 116.196 253.727 118.322 291.324L119.321 291.268C117.21 253.954 131.083 216.008 160.537 188.554L159.856 187.823ZM118.757 291.792C156.043 296.619 195.124 285.401 224.805 257.735L224.124 257.004C194.669 284.458 155.889 295.591 118.886 290.8L118.757 291.792ZM224.805 257.735C254.486 230.07 268.466 191.832 266.339 154.234L265.34 154.29C267.451 191.604 253.578 229.55 224.124 257.004L224.805 257.735ZM198.472 0L199.292 -0.572979L198.815 -1.25415L198.059 -0.910538L198.472 0ZM226.998 164.508L227.962 164.772L226.998 164.508ZM118.753 291.54L117.934 292.113L118.41 292.795L119.167 292.451L118.753 291.54ZM90.2274 127.032L89.2628 126.769L90.2274 127.032ZM190.984 27.3836L191.804 26.8106L191.328 26.1294L190.571 26.4731L190.984 27.3836ZM216.82 176.379L217.785 176.643L216.82 176.379ZM118.783 291.433L117.963 292.006L118.439 292.688L119.196 292.344L118.783 291.433ZM92.9465 142.438L91.9819 142.174L92.9465 142.438ZM207.766 187.005L206.801 186.742L207.766 187.005ZM184.316 51.7704L185.135 51.1974L184.659 50.5162L183.902 50.8598L184.316 51.7704ZM178.132 74.3835L178.952 73.8105L178.476 73.1293L177.719 73.4729L178.132 74.3835ZM165.523 120.497L166.343 119.924L165.867 119.243L165.11 119.586L165.523 120.497ZM182.249 216.951L181.284 216.688L182.249 216.951ZM102.057 194.979L103.022 195.242L102.057 194.979ZM159.704 141.78L160.523 141.207L160.047 140.526L159.29 140.869L159.704 141.78ZM174.346 226.225L175.311 226.489L174.346 226.225ZM104.139 206.988L103.175 206.724L104.139 206.988ZM154.005 162.619L154.825 162.046L154.349 161.365L153.592 161.709L154.005 162.619ZM166.609 235.306L167.574 235.569L166.609 235.306ZM147.943 184.789L148.763 184.216L148.287 183.535L147.53 183.879L147.943 184.789ZM158.378 244.966L157.413 244.702L158.378 244.966ZM108.348 231.257L109.312 231.521L108.348 231.257ZM33.3798 1.50383L33.7748 0.58516L33.0116 0.256971L32.5491 0.947095L33.3798 1.50383ZM144.072 126.321L145.031 126.039L144.072 126.321ZM118.75 291.374L118.355 292.292L119.118 292.621L119.58 291.931L118.75 291.374ZM8.05719 166.556L9.01646 166.274L8.05719 166.556ZM41.3982 28.7306L41.7933 27.8119L41.0301 27.4837L40.5676 28.1738L41.3982 28.7306ZM141.653 141.778L142.612 141.496L141.653 141.778ZM118.718 291.267L118.323 292.186L119.086 292.514L119.549 291.824L118.718 291.267ZM18.4635 178.22L17.5042 178.502L18.4635 178.22ZM48.5392 52.9776L48.9342 52.0589L48.171 51.7308L47.7085 52.4209L48.5392 52.9776ZM139.535 155.585L138.575 155.867L139.535 155.585ZM27.7226 188.66L26.7634 188.943L27.7226 188.66ZM55.1607 75.4612L55.5557 74.5425L54.7925 74.2143L54.33 74.9044L55.1607 75.4612ZM137.571 168.387L138.53 168.105L137.571 168.387ZM36.3082 198.342L35.3489 198.624L36.3082 198.342ZM68.6639 121.31L69.0589 120.391L68.2957 120.063L67.8332 120.753L68.6639 121.31ZM133.566 194.493L134.525 194.211L133.566 194.493ZM53.8165 218.084L52.8572 218.367L53.8165 218.084ZM74.896 142.471L75.291 141.552L74.5278 141.224L74.0653 141.914L74.896 142.471ZM131.717 206.543L132.676 206.26L131.717 206.543ZM61.8971 227.196L60.9379 227.479L61.8971 227.196ZM80.9981 163.191L81.3932 162.273L80.63 161.944L80.1674 162.635L80.9981 163.191ZM129.907 218.341L128.948 218.623L129.907 218.341ZM69.8094 236.118L70.7687 235.836L69.8094 236.118ZM87.4901 185.234L87.8852 184.315L87.122 183.987L86.6594 184.677L87.4901 185.234ZM127.981 230.892L127.022 231.174L127.981 230.892ZM78.227 245.61L77.2678 245.892L78.227 245.61ZM180.92 136.418L180.239 135.686L180.92 136.418ZM118.741 291.371L117.742 291.428L117.789 292.257L118.612 292.363L118.741 291.371ZM339.684 85.4319L340.683 85.3754L340.636 84.5467L339.813 84.4401L339.684 85.4319ZM277.505 240.386L278.186 241.117L277.505 240.386ZM318.932 104.775L319.93 104.719L319.883 103.89L319.06 103.784L318.932 104.775ZM175.138 150.953L175.82 151.685L175.138 150.953ZM118.821 291.296L117.823 291.352L117.87 292.181L118.693 292.287L118.821 291.296ZM262.615 245.118L261.933 244.386L262.615 245.118ZM300.451 122.002L301.449 121.945L301.402 121.116L300.579 121.01L300.451 122.002ZM169.937 163.915L170.619 164.646L169.937 163.915ZM249.335 249.382L248.653 248.651L249.335 249.382ZM165.114 175.934L164.432 175.202L165.114 175.934ZM118.822 291.296L117.823 291.352L117.87 292.181L118.693 292.288L118.822 291.296ZM283.313 137.975L284.311 137.919L284.264 137.09L283.441 136.984L283.313 137.975ZM237.02 253.337L236.339 252.606L237.02 253.337ZM155.278 200.443L155.96 201.174L155.278 200.443ZM248.366 170.549L249.364 170.492L249.317 169.663L248.494 169.557L248.366 170.549ZM211.908 261.402L211.227 260.67L211.908 261.402ZM150.739 211.755L151.421 212.486L150.739 211.755ZM232.237 185.583L233.235 185.526L233.188 184.697L232.365 184.591L232.237 185.583ZM200.318 265.124L201 265.855L200.318 265.124ZM216.443 200.304L217.442 200.247L217.395 199.418L216.572 199.312L216.443 200.304ZM146.295 222.831L145.613 222.1L146.295 222.831ZM188.97 268.768L189.652 269.5L188.97 268.768ZM199.642 215.964L200.64 215.907L200.593 215.079L199.77 214.972L199.642 215.964ZM141.566 234.614L140.885 233.883L141.566 234.614ZM176.897 272.646L176.215 271.914L176.897 272.646ZM197.652 0.572979C229.772 46.5154 241.984 105.909 226.033 164.244L227.962 164.772C244.077 105.84 231.737 45.8361 199.292 -0.572979L197.652 0.572979ZM226.033 164.244C210.082 222.579 169.355 267.467 118.34 290.63L119.167 292.451C170.701 269.052 211.848 223.704 227.962 164.772L226.033 164.244ZM119.573 290.967C87.4534 245.025 75.2408 185.631 91.1919 127.296L89.2628 126.769C73.1484 185.701 85.4881 245.704 117.934 292.113L119.573 290.967ZM91.1919 127.296C107.143 68.9612 147.87 24.0736 198.885 0.910538L198.059 -0.910538C146.524 22.4882 105.377 67.8367 89.2628 126.769L91.1919 127.296ZM190.165 27.9566C219.24 69.5449 230.295 123.309 215.856 176.116L217.785 176.643C232.387 123.24 221.205 68.8655 191.804 26.8106L190.165 27.9566ZM215.856 176.116C201.416 228.922 164.549 269.555 118.369 290.523L119.196 292.344C165.895 271.14 203.182 230.046 217.785 176.643L215.856 176.116ZM119.602 290.86C90.5268 249.272 79.4717 195.508 93.9111 142.701L91.9819 142.174C77.3793 195.577 88.5615 249.951 117.963 292.006L119.602 290.86ZM93.9111 142.701C108.35 89.8952 145.217 49.262 191.398 28.2941L190.571 26.4731C143.872 47.6766 106.584 88.7707 91.9819 142.174L93.9111 142.701ZM206.801 186.742C193.703 234.643 160.26 271.502 118.369 290.523L119.196 292.344C161.606 273.088 195.469 235.768 208.73 187.269L206.801 186.742ZM183.496 52.3433C209.871 90.0692 219.899 138.84 206.801 186.742L208.73 187.269C221.992 138.771 211.837 89.3898 185.135 51.1974L183.496 52.3433ZM96.297 156.462C109.395 108.561 142.838 71.7013 184.729 52.6809L183.902 50.8598C141.492 70.1159 107.629 107.436 94.3679 155.935L96.297 156.462ZM119.602 290.86C93.2272 253.135 83.1988 204.364 96.297 156.462L94.3679 155.935C81.1064 204.433 91.2618 253.814 117.963 292.006L119.602 290.86ZM177.313 74.9565C201.184 109.101 210.26 153.241 198.405 196.595L200.334 197.122C212.352 153.172 203.149 108.421 178.952 73.8105L177.313 74.9565ZM198.405 196.595C186.55 239.949 156.283 273.308 118.369 290.523L119.196 292.344C157.629 274.894 188.316 241.073 200.334 197.122L198.405 196.595ZM119.602 290.86C95.7311 256.716 86.6549 212.576 98.5096 169.222L96.5804 168.695C84.5625 212.645 93.7658 257.396 117.963 292.006L119.602 290.86ZM98.5096 169.222C110.364 125.868 140.632 92.5087 178.546 75.294L177.719 73.4729C139.286 90.9233 108.598 124.744 96.5804 168.695L98.5096 169.222ZM164.704 121.07C183.469 147.91 190.603 182.608 181.284 216.688L183.213 217.215C192.695 182.539 185.434 147.231 166.343 119.924L164.704 121.07ZM181.284 216.688C171.965 250.767 148.173 276.991 118.369 290.523L119.196 292.344C149.519 278.576 173.731 251.892 183.213 217.215L181.284 216.688ZM119.602 290.86C100.837 264.02 93.7031 229.322 103.022 195.242L101.093 194.715C91.6107 229.391 98.872 264.699 117.963 292.006L119.602 290.86ZM103.022 195.242C112.341 161.163 136.133 134.94 165.937 121.407L165.11 119.586C134.787 133.354 110.575 160.038 101.093 194.715L103.022 195.242ZM158.884 142.353C175.292 165.822 181.53 196.162 173.382 225.961L175.311 226.489C183.623 196.093 177.257 165.143 160.523 141.207L158.884 142.353ZM173.382 225.961C165.234 255.761 144.43 278.69 118.369 290.523L119.196 292.344C145.776 280.276 167 256.885 175.311 226.489L173.382 225.961ZM119.602 290.86C103.194 267.391 96.9557 237.051 105.104 207.252L103.175 206.724C94.8633 237.121 101.229 268.07 117.963 292.006L119.602 290.86ZM105.104 207.252C113.252 177.453 134.056 154.523 160.117 142.69L159.29 140.869C132.71 152.938 111.486 176.328 103.175 206.724L105.104 207.252ZM153.186 163.192C167.287 183.361 172.647 209.434 165.645 235.042L167.574 235.569C174.74 209.364 169.252 182.682 154.825 162.046L153.186 163.192ZM165.645 235.042C158.643 260.65 140.765 280.354 118.369 290.523L119.196 292.344C142.111 281.94 160.409 261.774 167.574 235.569L165.645 235.042ZM119.602 290.86C105.501 270.691 100.141 244.619 107.143 219.011L105.214 218.484C98.0483 244.689 103.536 271.371 117.963 292.006L119.602 290.86ZM107.143 219.011C114.145 193.403 132.023 173.698 154.419 163.53L153.592 161.709C130.677 172.113 112.379 192.278 105.214 218.484L107.143 219.011ZM147.124 185.362C158.769 202.02 163.197 223.552 157.413 244.702L159.343 245.229C165.289 223.483 160.735 201.34 148.763 184.216L147.124 185.362ZM157.413 244.702C151.63 265.851 136.866 282.125 118.369 290.523L119.196 292.344C138.212 283.71 153.396 266.976 159.343 245.229L157.413 244.702ZM119.602 290.86C107.956 274.203 103.529 252.67 109.312 231.521L107.383 230.993C101.437 252.74 105.991 274.882 117.963 292.006L119.602 290.86ZM109.312 231.521C115.095 210.371 129.86 194.098 148.357 185.7L147.53 183.879C128.514 192.512 113.329 209.247 107.383 230.993L109.312 231.521ZM32.9847 2.42249C84.4397 24.5488 126.031 68.6032 143.113 126.604L145.031 126.039C127.775 67.4442 85.7539 22.9368 33.7748 0.58516L32.9847 2.42249ZM143.113 126.604C160.195 184.604 149.139 244.234 117.919 290.817L119.58 291.931C151.117 244.875 162.288 184.633 145.031 126.039L143.113 126.604ZM119.145 290.455C67.6897 268.329 26.0983 224.274 9.01646 166.274L7.09793 166.839C24.3547 225.433 66.3755 269.941 118.355 292.292L119.145 290.455ZM9.01646 166.274C-8.06543 108.273 2.99022 48.6441 34.2105 2.06056L32.5491 0.947095C1.0122 48.0031 -10.1588 108.244 7.09793 166.839L9.01646 166.274ZM41.0032 29.6492C87.5816 49.6785 125.231 89.5575 140.694 142.061L142.612 141.496C126.975 88.3985 88.8958 48.0665 41.7933 27.8119L41.0032 29.6492ZM140.694 142.061C156.157 194.564 146.149 248.542 117.888 290.711L119.549 291.824C148.127 249.183 158.25 194.593 142.612 141.496L140.694 142.061ZM119.113 290.349C72.5349 270.319 34.8856 230.44 19.4227 177.937L17.5042 178.502C33.142 231.6 71.2207 271.931 118.323 292.186L119.113 290.349ZM19.4227 177.937C3.9598 125.434 13.9675 71.456 42.2289 29.2873L40.5676 28.1738C11.9895 70.815 1.86638 125.405 17.5042 178.502L19.4227 177.937ZM48.1442 53.8963C90.3965 72.0653 124.549 108.24 138.575 155.867L140.494 155.302C126.292 107.081 91.7107 70.4534 48.9342 52.0589L48.1442 53.8963ZM138.575 155.867C152.602 203.494 143.524 252.458 117.888 290.711L119.549 291.824C145.502 253.099 154.695 203.523 140.494 155.302L138.575 155.867ZM119.113 290.349C76.861 272.18 42.7086 236.005 28.6819 188.378L26.7634 188.943C40.965 237.164 75.5468 273.792 118.323 292.186L119.113 290.349ZM28.6819 188.378C14.6552 140.751 23.7333 91.7866 49.3699 53.5343L47.7085 52.4209C21.7552 91.1456 12.5618 140.722 26.7634 188.943L28.6819 188.378ZM54.7656 76.3798C93.0067 92.8239 123.916 125.564 136.611 168.67L138.53 168.105C125.66 124.405 94.3209 91.2119 55.5557 74.5425L54.7656 76.3798ZM136.611 168.67C149.306 211.775 141.09 256.09 117.888 290.711L119.549 291.824C143.068 256.731 151.4 211.804 138.53 168.105L136.611 168.67ZM119.113 290.349C80.8722 273.905 49.9624 241.164 37.2674 198.059L35.3489 198.624C48.2188 242.323 79.558 275.517 118.323 292.186L119.113 290.349ZM37.2674 198.059C24.5725 154.954 32.7886 110.639 55.9914 76.0179L54.33 74.9044C30.8106 109.998 22.4791 154.925 35.3489 198.624L37.2674 198.059ZM68.2688 122.229C98.3299 135.155 122.627 160.892 132.607 194.776L134.525 194.211C124.371 159.733 99.6441 133.543 69.0589 120.391L68.2688 122.229ZM132.607 194.776C142.586 228.66 136.127 263.495 117.888 290.711L119.549 291.824C138.105 264.136 144.679 228.689 134.525 194.211L132.607 194.776ZM119.113 290.349C89.0522 277.422 64.755 251.686 54.7757 217.802L52.8572 218.367C63.0114 252.845 87.738 279.034 118.323 292.186L119.113 290.349ZM54.7757 217.802C44.7964 183.917 51.2548 149.082 69.4946 121.867L67.8332 120.753C49.2768 148.441 42.703 183.889 52.8572 218.367L54.7757 217.802ZM74.5009 143.39C100.787 154.693 122.032 177.197 130.758 206.825L132.676 206.26C123.776 176.037 102.101 153.081 75.291 141.552L74.5009 143.39ZM130.758 206.825C139.484 236.454 133.837 266.913 117.888 290.711L119.549 291.824C135.815 267.554 141.577 236.482 132.676 206.26L130.758 206.825ZM119.113 290.349C92.8276 279.046 71.5823 256.542 62.8564 226.914L60.9379 227.479C69.8387 257.701 91.5135 280.658 118.323 292.186L119.113 290.349ZM62.8564 226.914C54.1305 197.285 59.7776 166.825 75.7267 143.028L74.0653 141.914C57.7996 166.184 52.0371 197.256 60.9379 227.479L62.8564 226.914ZM80.6031 164.11C103.192 173.823 121.449 193.162 128.948 218.623L130.866 218.058C123.192 192.003 104.506 172.211 81.3932 162.273L80.6031 164.11ZM128.948 218.623C136.446 244.085 131.594 270.26 117.888 290.711L119.549 291.824C133.572 270.901 138.54 244.113 130.866 218.058L128.948 218.623ZM119.113 290.349C96.5245 280.635 78.2673 261.297 70.7687 235.836L68.8502 236.401C76.5237 262.456 95.2103 282.247 118.323 292.186L119.113 290.349ZM70.7687 235.836C63.2701 210.374 68.1228 184.199 81.8288 163.748L80.1674 162.635C66.1447 183.558 61.1767 210.346 68.8502 236.401L70.7687 235.836ZM87.0951 186.153C105.751 194.175 120.829 210.146 127.022 231.174L128.941 230.609C122.573 208.987 107.065 192.563 87.8852 184.315L87.0951 186.153ZM127.022 231.174C133.215 252.203 129.207 273.82 117.888 290.711L119.549 291.824C131.185 274.461 135.309 252.231 128.941 230.609L127.022 231.174ZM119.113 290.349C100.457 282.327 85.3793 266.356 79.1863 245.327L77.2678 245.892C83.6357 267.515 99.143 283.939 118.323 292.186L119.113 290.349ZM79.1863 245.327C72.9933 224.299 77.0009 202.681 88.3208 185.791L86.6594 184.677C75.0228 202.04 70.8998 224.27 77.2678 245.892L79.1863 245.327ZM180.239 135.686C135.576 177.315 114.542 234.854 117.742 291.428L119.739 291.315C116.571 235.309 137.393 178.356 181.602 137.149L180.239 135.686ZM339.813 84.4401C283.708 77.1765 224.901 94.057 180.239 135.686L181.602 137.149C225.811 95.9427 284.017 79.2333 339.556 86.4236L339.813 84.4401ZM278.186 241.117C322.849 199.488 343.883 141.949 340.683 85.3754L338.686 85.4883C341.854 141.495 321.032 198.448 276.823 239.654L278.186 241.117ZM118.612 292.363C174.717 299.627 233.524 282.746 278.186 241.117L276.823 239.654C232.614 280.86 174.408 297.57 118.869 290.38L118.612 292.363ZM319.06 103.784C268.219 97.2013 214.928 112.498 174.456 150.222L175.82 151.685C215.838 114.384 268.528 99.2581 318.803 105.767L319.06 103.784ZM174.456 150.222C133.984 187.945 114.923 240.086 117.823 291.352L119.819 291.239C116.952 240.541 135.801 188.986 175.82 151.685L174.456 150.222ZM118.693 292.287C169.534 298.87 222.825 283.573 263.297 245.849L261.933 244.386C221.914 281.687 169.225 296.813 118.949 290.304L118.693 292.287ZM263.297 245.849C303.769 208.126 322.83 155.985 319.93 104.719L317.933 104.832C320.801 155.53 301.952 207.085 261.933 244.386L263.297 245.849ZM300.579 121.01C254.407 115.032 206.011 128.924 169.255 163.183L170.619 164.646C206.921 130.81 254.716 117.089 300.322 122.993L300.579 121.01ZM169.255 163.183C132.5 197.442 115.189 244.795 117.823 291.352L119.819 291.239C117.218 245.249 134.317 198.483 170.619 164.646L169.255 163.183ZM118.693 292.287C164.865 298.265 213.262 284.373 250.017 250.114L248.653 248.651C212.352 282.487 164.555 296.208 118.949 290.304L118.693 292.287ZM250.017 250.114C286.772 215.855 304.083 168.503 301.449 121.945L299.452 122.058C302.054 168.048 284.955 214.814 248.653 248.651L250.017 250.114ZM164.432 175.202C131.124 206.249 115.437 249.161 117.823 291.352L119.82 291.239C117.465 249.616 132.941 207.289 165.796 176.665L164.432 175.202ZM283.441 136.984C241.599 131.566 197.741 144.156 164.432 175.202L165.796 176.665C198.651 146.042 241.909 133.623 283.185 138.967L283.441 136.984ZM237.702 254.069C271.011 223.022 286.698 180.11 284.311 137.919L282.315 138.032C284.669 179.656 269.194 221.982 236.339 252.606L237.702 254.069ZM118.693 292.288C160.535 297.705 204.394 285.116 237.702 254.069L236.339 252.606C203.484 283.23 160.226 295.648 118.95 290.304L118.693 292.288ZM154.597 199.711C128.316 224.207 115.94 258.064 117.823 291.352L119.819 291.239C117.968 258.519 130.133 225.247 155.96 201.174L154.597 199.711ZM248.494 169.557C215.481 165.283 180.877 175.215 154.597 199.711L155.96 201.174C181.787 177.101 215.791 167.339 248.237 171.54L248.494 169.557ZM212.59 262.133C238.871 237.638 251.247 203.78 249.364 170.492L247.367 170.605C249.218 203.326 237.054 236.597 211.227 260.67L212.59 262.133ZM118.693 292.287C151.706 296.562 186.31 286.629 212.59 262.133L211.227 260.67C185.4 284.743 151.396 294.505 118.949 290.304L118.693 292.287ZM150.058 211.023C127.021 232.495 116.173 262.174 117.823 291.352L119.82 291.239C118.201 262.628 128.838 233.536 151.421 212.486L150.058 211.023ZM232.365 184.591C203.427 180.844 173.094 189.551 150.058 211.023L151.421 212.486C174.004 191.437 203.737 182.901 232.108 186.574L232.365 184.591ZM201 265.855C224.037 244.383 234.886 214.705 233.235 185.526L231.238 185.639C232.857 214.25 222.22 243.343 199.637 264.392L201 265.855ZM118.693 292.288C147.631 296.034 177.964 287.328 201 265.855L199.637 264.392C177.054 285.442 147.322 293.977 118.95 290.304L118.693 292.288ZM216.572 199.312C191.624 196.082 165.473 203.588 145.613 222.1L146.977 223.563C166.383 205.474 191.934 198.139 216.315 201.295L216.572 199.312ZM145.613 222.1C125.753 240.611 116.4 266.197 117.823 291.352L119.82 291.239C118.429 266.652 127.57 241.651 146.977 223.563L145.613 222.1ZM118.693 292.288C143.641 295.518 169.791 288.011 189.652 269.5L188.288 268.037C168.881 286.126 143.331 293.461 118.95 290.304L118.693 292.288ZM189.652 269.5C209.512 250.989 218.865 225.402 217.442 200.247L215.445 200.36C216.836 224.948 207.695 249.948 188.288 268.037L189.652 269.5ZM199.77 214.972C179.068 212.292 157.366 218.521 140.885 233.883L142.248 235.346C158.276 220.407 179.377 214.349 199.514 216.956L199.77 214.972ZM140.885 233.883C124.403 249.245 116.642 270.478 117.823 291.352L119.82 291.239C118.671 270.932 126.22 250.285 142.248 235.346L140.885 233.883ZM118.693 292.288C139.396 294.968 161.097 288.739 177.579 273.377L176.215 271.914C160.187 286.853 139.087 292.911 118.95 290.304L118.693 292.288ZM177.579 273.377C194.06 258.015 201.821 236.782 200.64 215.907L198.644 216.02C199.792 236.327 192.243 256.975 176.215 271.914L177.579 273.377Z" fill="#ECF0F7" mask="url(#path-1-inside-1_295_6887)"/>
</svg>
