<svg width="16" height="17" viewBox="0 0 16 17" fill="none" xmlns="http://www.w3.org/2000/svg">
<g clip-path="url(#clip0_2001_1023)">
<path fill-rule="evenodd" clip-rule="evenodd" d="M11.6499 15.3348C12.2404 15.3753 12.7308 15.213 13.132 14.8134L14.8277 13.1165C14.8382 13.105 14.8416 13.0992 14.8422 13.0934L12.4181 10.6667C12.4123 10.6667 12.4025 10.6725 12.3921 10.6841L10.6963 12.3752C10.5875 12.4853 10.4393 12.549 10.2858 12.549L10.287 11.9698C10.2858 12.549 10.2841 12.549 10.2841 12.549H10.2824H10.2789H10.2713H10.2569C10.2465 12.549 10.2355 12.5432 10.2239 12.5432C10.2007 12.5432 10.1747 12.5374 10.1457 12.5316C10.0884 12.5258 10.0195 12.5085 9.93788 12.4796C9.77461 12.4274 9.55692 12.329 9.2715 12.161C8.70238 11.8193 7.83917 11.1764 6.57531 9.9312C5.30913 8.69181 4.65894 7.82313 4.32372 7.23818C4.15525 6.94861 4.06207 6.72277 4.0117 6.54902C3.98622 6.46215 3.97175 6.39258 3.96364 6.32887C3.95959 6.29991 3.95784 6.27681 3.95668 6.24785C3.9561 6.23627 3.95551 6.22466 3.95551 6.21887C3.95551 6.21307 3.95611 6.20727 3.95611 6.20147V6.19568V6.18988C3.95611 6.18988 3.95667 6.18411 4.53447 6.21307L3.95668 6.18408C3.96363 6.04509 4.02385 5.90615 4.12516 5.80769L5.8215 4.11066C5.83192 4.09908 5.83481 4.08761 5.83539 4.08182L3.41129 1.65505C3.40608 1.66085 3.39624 1.66086 3.38581 1.67245L1.68948 3.36933C1.2871 3.76895 1.12904 4.26126 1.16204 4.8462C1.19562 5.45431 1.4359 6.16093 1.84001 6.92542C2.64823 8.4486 4.02327 10.0355 5.23329 11.2517C6.43636 12.4505 8.0308 13.8348 9.56214 14.6514C10.3287 15.0568 11.0391 15.3 11.6499 15.3348ZM5.1835 6.38684L6.64015 4.92736C7.08479 4.48141 7.13051 3.74003 6.6604 3.27092L4.22474 0.8327C3.75405 0.363584 3.01123 0.409934 2.56717 0.850091L0.870831 2.54697C0.19982 3.21879 -0.0421589 4.04703 0.00589445 4.90997C0.052211 5.75554 0.372954 6.63001 0.817013 7.46399C1.70571 9.14354 3.17568 10.8289 4.41464 12.0682C5.64608 13.3018 7.33662 14.773 9.01849 15.6707C9.85855 16.1167 10.7374 16.4409 11.5815 16.4931C12.4465 16.5452 13.2785 16.3077 13.9506 15.6359L15.6464 13.9389C16.091 13.493 16.1368 12.7517 15.6667 12.2768L13.231 9.84438C12.7603 9.36947 12.0181 9.41582 11.5734 9.86177L10.1283 11.3097C10.0577 11.2749 9.96972 11.2286 9.86261 11.1649C9.40118 10.8869 8.61148 10.3135 7.38699 9.10884C6.16539 7.9042 5.59225 7.12235 5.32651 6.65903C5.26109 6.54899 5.21534 6.45634 5.1835 6.38684Z" fill="#3786F1"/>
</g>
<defs>
<clipPath id="clip0_2001_1023">
<rect width="16" height="16" fill="white" transform="translate(0 0.5)"/>
</clipPath>
</defs>
</svg>
