<svg width="100" height="100" viewBox="0 0 100 100" fill="none" xmlns="http://www.w3.org/2000/svg">
<rect width="100" height="100" rx="20" fill="#4B94F7"/>
<path d="M59.3023 46.5116C59.3023 48.4381 58.2612 50 56.9767 50C55.6923 50 54.6512 48.4381 54.6512 46.5116C54.6512 44.585 55.6923 43.0233 56.9767 43.0233C58.2612 43.0233 59.3023 44.585 59.3023 46.5116Z" fill="white"/>
<path d="M45.3488 46.5116C45.3488 48.4381 44.3077 50 43.0233 50C41.7389 50 40.6977 48.4381 40.6977 46.5116C40.6977 44.585 41.7389 43.0233 43.0233 43.0233C44.3077 43.0233 45.3488 44.585 45.3488 46.5116Z" fill="white"/>
<path fill-rule="evenodd" clip-rule="evenodd" d="M49.8665 25H50.1335C55.5019 25 59.7088 25 62.9914 25.4413C66.3512 25.893 69.0026 26.8357 71.0835 28.9166C73.1644 30.9976 74.107 33.6488 74.5588 37.0086C75 40.2911 75 44.4982 75 49.8665V50.1335C75 55.5019 75 59.7088 74.5588 62.9914C74.107 66.3512 73.1644 69.0026 71.0835 71.0835C69.0026 73.1644 66.3512 74.107 62.9914 74.5588C59.7088 75 55.5019 75 50.1335 75H49.8665C44.4982 75 40.2911 75 37.0086 74.5588C33.6488 74.107 30.9976 73.1644 28.9166 71.0835C26.8357 69.0026 25.893 66.3512 25.4413 62.9914C25 59.7088 25 55.5019 25 50.1335V49.8665C25 44.4982 25 40.2911 25.4413 37.0086C25.893 33.6488 26.8357 30.9976 28.9166 28.9166C30.9976 26.8357 33.6488 25.893 37.0086 25.4413C40.2911 25 44.4982 25 49.8665 25ZM37.4734 28.8985C34.5004 29.2983 32.708 30.0585 31.3833 31.3833C30.0585 32.708 29.2983 34.5004 28.8985 37.4734C28.4921 40.4967 28.4884 44.4692 28.4884 50C28.4884 55.5307 28.4921 59.5033 28.8985 62.5265C29.2983 65.4995 30.0585 67.2919 31.3833 68.6167C32.708 69.9416 34.5004 70.7019 37.4734 71.1014C40.4967 71.5079 44.4692 71.5116 50 71.5116C55.5307 71.5116 59.5033 71.5079 62.5265 71.1014C65.4995 70.7019 67.2919 69.9416 68.6167 68.6167C69.9416 67.2919 70.7019 65.4995 71.1014 62.5265C71.5079 59.5033 71.5116 55.5307 71.5116 50C71.5116 44.4692 71.5079 40.4967 71.1014 37.4734C70.7019 34.5004 69.9416 32.708 68.6167 31.3833C67.2919 30.0585 65.4995 29.2983 62.5265 28.8985C59.5033 28.4921 55.5307 28.4884 50 28.4884C44.4692 28.4884 40.4967 28.4921 37.4734 28.8985ZM41.9846 60.2267C44.246 58.5505 47.0116 57.5581 50 57.5581C52.9884 57.5581 55.754 58.5505 58.0153 60.2267C58.7893 60.8002 58.9516 61.8926 58.3779 62.6665C57.8044 63.4405 56.7121 63.6028 55.9381 63.0291C54.2442 61.7737 52.1998 61.0465 50 61.0465C47.8002 61.0465 45.7558 61.7737 44.0619 63.0291C43.288 63.6028 42.1957 63.4405 41.622 62.6665C41.0484 61.8926 41.2107 60.8002 41.9846 60.2267Z" fill="white"/>
</svg>
