<svg width="100" height="101" viewBox="0 0 100 101" fill="none" xmlns="http://www.w3.org/2000/svg">
<rect y="0.5" width="100" height="100" rx="20" fill="#4B94F7"/>
<path d="M59.3023 47.0116C59.3023 48.9381 58.2612 50.5 56.9767 50.5C55.6923 50.5 54.6512 48.9381 54.6512 47.0116C54.6512 45.085 55.6923 43.5233 56.9767 43.5233C58.2612 43.5233 59.3023 45.085 59.3023 47.0116Z" fill="white"/>
<path d="M45.3488 47.0116C45.3488 48.9381 44.3077 50.5 43.0233 50.5C41.7389 50.5 40.6977 48.9381 40.6977 47.0116C40.6977 45.085 41.7389 43.5233 43.0233 43.5233C44.3077 43.5233 45.3488 45.085 45.3488 47.0116Z" fill="white"/>
<path fill-rule="evenodd" clip-rule="evenodd" d="M49.8665 25.5H50.1335C55.5019 25.5 59.7088 25.5 62.9914 25.9413C66.3512 26.393 69.0026 27.3357 71.0835 29.4166C73.1644 31.4976 74.107 34.1488 74.5588 37.5086C75 40.7911 75 44.9982 75 50.3665V50.6335C75 56.0019 75 60.2088 74.5588 63.4914C74.107 66.8512 73.1644 69.5026 71.0835 71.5835C69.0026 73.6644 66.3512 74.607 62.9914 75.0588C59.7088 75.5 55.5019 75.5 50.1335 75.5H49.8665C44.4982 75.5 40.2911 75.5 37.0086 75.0588C33.6488 74.607 30.9976 73.6644 28.9166 71.5835C26.8357 69.5026 25.893 66.8512 25.4413 63.4914C25 60.2088 25 56.0019 25 50.6335V50.3665C25 44.9982 25 40.7911 25.4413 37.5086C25.893 34.1488 26.8357 31.4976 28.9166 29.4166C30.9976 27.3357 33.6488 26.393 37.0086 25.9413C40.2911 25.5 44.4982 25.5 49.8665 25.5ZM37.4734 29.3985C34.5004 29.7983 32.708 30.5585 31.3833 31.8833C30.0585 33.208 29.2983 35.0004 28.8985 37.9734C28.4921 40.9967 28.4884 44.9692 28.4884 50.5C28.4884 56.0307 28.4921 60.0033 28.8985 63.0265C29.2983 65.9995 30.0585 67.7919 31.3833 69.1167C32.708 70.4416 34.5004 71.2019 37.4734 71.6014C40.4967 72.0079 44.4692 72.0116 50 72.0116C55.5307 72.0116 59.5033 72.0079 62.5265 71.6014C65.4995 71.2019 67.2919 70.4416 68.6167 69.1167C69.9416 67.7919 70.7019 65.9995 71.1014 63.0265C71.5079 60.0033 71.5116 56.0307 71.5116 50.5C71.5116 44.9692 71.5079 40.9967 71.1014 37.9734C70.7019 35.0004 69.9416 33.208 68.6167 31.8833C67.2919 30.5585 65.4995 29.7983 62.5265 29.3985C59.5033 28.9921 55.5307 28.9884 50 28.9884C44.4692 28.9884 40.4967 28.9921 37.4734 29.3985ZM41.622 58.7637C42.1957 57.9898 43.288 57.8274 44.0619 58.4012C45.7558 59.6565 47.8002 60.3837 50 60.3837C52.1998 60.3837 54.2442 59.6565 55.9381 58.4012C56.7121 57.8274 57.8044 57.9898 58.3779 58.7637C58.9516 59.5377 58.7893 60.63 58.0153 61.2035C55.754 62.8798 52.9884 63.8721 50 63.8721C47.0116 63.8721 44.246 62.8798 41.9846 61.2035C41.2107 60.63 41.0484 59.5377 41.622 58.7637Z" fill="white"/>
</svg>
