<svg width="325" height="176" viewBox="0 0 325 176" fill="none" xmlns="http://www.w3.org/2000/svg">
<g clip-path="url(#clip0_314_50532)">
<path d="M136.589 -184.805L200.142 82.5786L-246.394 129.595L136.589 -184.805Z" stroke="#7337F1"/>
<path d="M154.091 -181.023L221.349 101.949L-109.846 109.242L154.091 -181.023Z" stroke="#7337F1"/>
<path d="M167.917 -192.701L242.555 121.323L-78.9779 105.816L167.917 -192.701Z" stroke="#7337F1"/>
<path d="M173.048 -240.965L263.764 140.701L-129.978 98.873L173.048 -240.965Z" stroke="#7337F1"/>
<path d="M177.414 -281.966L281.792 157.178L-164.858 92.0109L177.414 -281.966Z" stroke="#7337F1"/>
<path d="M123.494 -152.587L173.636 58.3728L-99.1905 123.938L123.494 -152.587Z" stroke="#7337F1"/>
<path d="M94.666 -169.064L144.807 41.8934L-138.6 149.202L94.666 -169.064Z" stroke="#7337F1"/>
</g>
<defs>
<clipPath id="clip0_314_50532">
<rect width="325" height="176" fill="white"/>
</clipPath>
</defs>
</svg>
