<svg width="18" height="16" viewBox="0 0 18 16" fill="none" xmlns="http://www.w3.org/2000/svg">
<path fill-rule="evenodd" clip-rule="evenodd" d="M13.2719 12.9627C11.9692 14.1833 10.1962 14.9341 8.24256 14.9341C4.24261 14.9341 1 11.7867 1 7.90417C1 4.02165 4.24261 0.874237 8.24256 0.874237C12.2425 0.874237 15.4851 4.02165 15.4851 7.90417C15.4851 9.53008 14.9165 11.0271 13.9616 12.218L16.8491 15.0207C17.0503 15.2159 17.0503 15.5325 16.8491 15.7278C16.648 15.9231 16.3218 15.9231 16.1206 15.7278L13.2719 12.9627ZM14.4549 7.90417C14.4549 11.2344 11.6735 13.9341 8.24256 13.9341C4.8116 13.9341 2.03025 11.2344 2.03025 7.90417C2.03025 4.57393 4.8116 1.87424 8.24256 1.87424C11.6735 1.87424 14.4549 4.57393 14.4549 7.90417Z" fill="#08133B" fill-opacity="0.5"/>
<path d="M8.24256 14.9841C10.1918 14.9841 11.9627 14.2416 13.2712 13.0317L16.0858 15.7637C16.3064 15.9778 16.6634 15.9778 16.8839 15.7637C17.1054 15.5488 17.1054 15.1997 16.8839 14.9848L14.029 12.2137C14.9735 11.0201 15.5351 9.52584 15.5351 7.90417C15.5351 3.99264 12.2687 0.824237 8.24256 0.824237C4.21641 0.824237 0.95 3.99264 0.95 7.90417C0.95 11.8157 4.21641 14.9841 8.24256 14.9841ZM14.4049 7.90417C14.4049 11.2054 11.6473 13.8841 8.24256 13.8841C4.83779 13.8841 2.08025 11.2054 2.08025 7.90417C2.08025 4.60294 4.83779 1.92424 8.24256 1.92424C11.6473 1.92424 14.4049 4.60294 14.4049 7.90417Z" stroke="#1E3177" stroke-opacity="0.7" stroke-width="0.1"/>
</svg>
