<svg width="16" height="17" viewBox="0 0 16 17" fill="none" xmlns="http://www.w3.org/2000/svg">
<path d="M7.14073 2.06934C7.48561 1.31022 8.51439 1.31022 8.85927 2.06934L10.2454 5.12038C10.3842 5.42588 10.6607 5.6369 10.9802 5.68114L14.1712 6.12294C14.9652 6.23287 15.2831 7.26054 14.7023 7.83963L12.368 10.1671C12.1342 10.4001 12.0286 10.7416 12.0873 11.0744L12.6733 14.3985C12.8191 15.2256 11.9868 15.8607 11.283 15.4595L8.45416 13.8469C8.1709 13.6854 7.8291 13.6854 7.54584 13.8469L4.71702 15.4595C4.01319 15.8607 3.18088 15.2256 3.32669 14.3985L3.91272 11.0744C3.9714 10.7416 3.86578 10.4001 3.63203 10.1671L1.2977 7.83963C0.716897 7.26054 1.03481 6.23287 1.82876 6.12294L5.01976 5.68114C5.33929 5.6369 5.61581 5.42588 5.75461 5.12038L7.14073 2.06934Z" fill="#FFC635"/>
</svg>
