<svg width="16" height="16" viewBox="0 0 16 16" fill="none" xmlns="http://www.w3.org/2000/svg">
<g clip-path="url(#clip0_2001_16969)">
<path fill-rule="evenodd" clip-rule="evenodd" d="M8 1.14286C4.21314 1.14286 1.14286 4.21143 1.14286 8C1.14286 8.31429 0.886857 8.57143 0.571429 8.57143C0.256 8.57143 0 8.31429 0 8C0 3.58286 3.58171 0 8 0C12.4183 0 16 3.58286 16 8C16 12.4171 12.4183 16 8 16C7.68457 16 7.42857 15.7429 7.42857 15.4286C7.42857 15.1143 7.68457 14.8571 8 14.8571C11.7869 14.8571 14.8571 11.7886 14.8571 8C14.8571 4.21143 11.7869 1.14286 8 1.14286ZM8.05549 8.59259C8.05549 8.7537 7.98461 8.90409 7.86217 9.00612L4.63995 11.6913C4.41224 11.8793 4.07336 11.847 3.88379 11.6215C3.69368 11.3959 3.72482 11.0576 3.95252 10.8642L6.98142 8.3402V3.75926C6.98142 3.46389 7.22201 3.22222 7.51846 3.22222C7.8149 3.22222 8.05549 3.46389 8.05549 3.75926V8.59259Z" fill="#4B94F7"/>
</g>
<defs>
<clipPath id="clip0_2001_16969">
<rect width="16" height="16" fill="white"/>
</clipPath>
</defs>
</svg>
