<svg width="16" height="17" viewBox="0 0 16 17" fill="none" xmlns="http://www.w3.org/2000/svg">
<g clip-path="url(#clip0_2056_17117)">
<path d="M10.8571 7.58468C10.2286 7.58468 9.71429 8.09897 9.71429 8.72754C9.71429 9.35611 10.2286 9.8704 10.8571 9.8704C11.4857 9.8704 12 9.35611 12 8.72754C12 8.09897 11.4857 7.58468 10.8571 7.58468Z" fill="#4B94F7"/>
<path fill-rule="evenodd" clip-rule="evenodd" d="M13.1429 16.7275C14.72 16.7275 16 15.4475 16 13.8704V3.58468C16 2.00754 14.72 0.727539 13.1429 0.727539H2.85714C1.28 0.727539 0 2.00754 0 3.58468V13.8704C0 15.4475 1.28 16.7275 2.85714 16.7275H13.1429ZM14.8571 3.58468V5.29897H10.2857C8.70857 5.29897 7.42857 6.57897 7.42857 8.15611V9.29897C7.42857 10.8761 8.70857 12.1561 10.2857 12.1561H14.8571V13.8704C14.8571 14.819 14.0914 15.5847 13.1429 15.5847H2.85714C1.90857 15.5847 1.14286 14.819 1.14286 13.8704V3.58468C1.14286 2.63611 1.90857 1.8704 2.85714 1.8704H13.1429C14.0914 1.8704 14.8571 2.63611 14.8571 3.58468ZM10.2857 6.44182H14.8571V11.0133H10.2857C9.33714 11.0133 8.57143 10.2475 8.57143 9.29897V8.15611C8.57143 7.20754 9.33714 6.44182 10.2857 6.44182Z" fill="#4B94F7"/>
</g>
<defs>
<clipPath id="clip0_2056_17117">
<rect width="16" height="16" fill="white" transform="translate(0 0.727539)"/>
</clipPath>
</defs>
</svg>
