<svg width="19" height="30" viewBox="0 0 19 30" fill="none" xmlns="http://www.w3.org/2000/svg">
<path fill-rule="evenodd" clip-rule="evenodd" d="M19 29.4764H13.9905V4.44743L12.5763 4.44751C11.7985 4.44757 11.0164 4.46102 10.8384 4.47738C7.94594 4.74323 6.13145 6.17952 5.68136 8.55956C5.62428 8.86134 5.61795 8.97968 5.61882 9.72497C5.61989 10.6152 5.64775 10.9151 5.78971 11.5639C6.15242 13.2216 7.0509 14.4966 8.84025 15.8928C9.36335 16.301 9.67462 16.5219 11.2043 17.5705C11.9705 18.0958 12.5961 18.5409 12.5945 18.5598C12.5918 18.5927 5.49029 29.3961 5.42323 29.4694C5.39725 29.4978 4.82836 29.5038 2.69521 29.498L0 29.4907L3.22405 24.6093C4.99725 21.9246 6.44806 19.7206 6.44806 19.7117C6.44806 19.7028 6.25489 19.5496 6.01879 19.3713C3.59064 17.5379 2.14284 15.8364 1.37655 13.9155C0.449112 11.5908 0.414073 8.53708 1.28888 6.27938C2.12806 4.11367 3.70288 2.52978 6.01184 1.52931C7.14056 1.04023 8.74487 0.667623 10.1911 0.558668C10.4156 0.541763 10.6499 0.523827 10.7118 0.518792C10.7737 0.513729 12.6639 0.507466 14.9122 0.504806L19 0.5V29.4764Z" fill="#ED1E24"/>
</svg>
