<svg width="174" height="62" viewBox="0 0 174 62" fill="none" xmlns="http://www.w3.org/2000/svg">
<path d="M1.218 58V48.13H2.366V52.498H8.288V48.13H9.436V58H8.288V53.492H2.366V58H1.218ZM13.9264 58.126C13.4597 58.126 13.0397 58.0373 12.6664 57.86C12.3024 57.6733 12.0131 57.4213 11.7984 57.104C11.5837 56.7867 11.4764 56.432 11.4764 56.04C11.4764 55.5453 11.6024 55.1533 11.8544 54.864C12.1157 54.5747 12.5404 54.3693 13.1284 54.248C13.7257 54.1173 14.5377 54.052 15.5644 54.052H16.0124V53.618C16.0124 53.0393 15.8911 52.624 15.6484 52.372C15.4151 52.1107 15.0371 51.98 14.5144 51.98C14.1037 51.98 13.7071 52.0407 13.3244 52.162C12.9417 52.274 12.5497 52.4607 12.1484 52.722L11.7564 51.896C12.1111 51.644 12.5404 51.4433 13.0444 51.294C13.5577 51.1447 14.0477 51.07 14.5144 51.07C15.3917 51.07 16.0404 51.2847 16.4604 51.714C16.8897 52.1433 17.1044 52.8107 17.1044 53.716V58H16.0404V56.824C15.8631 57.2253 15.5877 57.5427 15.2144 57.776C14.8504 58.0093 14.4211 58.126 13.9264 58.126ZM14.1084 57.272C14.6684 57.272 15.1257 57.0807 15.4804 56.698C15.8351 56.306 16.0124 55.8113 16.0124 55.214V54.794H15.5784C14.8224 54.794 14.2251 54.8313 13.7864 54.906C13.3571 54.9713 13.0537 55.0927 12.8764 55.27C12.7084 55.438 12.6244 55.6713 12.6244 55.97C12.6244 56.3527 12.7551 56.6653 13.0164 56.908C13.2871 57.1507 13.6511 57.272 14.1084 57.272ZM19.3313 60.52V51.196H20.4373V52.414C20.6426 51.994 20.9459 51.6673 21.3473 51.434C21.7579 51.1913 22.2339 51.07 22.7753 51.07C23.3819 51.07 23.9093 51.2147 24.3573 51.504C24.8146 51.784 25.1646 52.19 25.4073 52.722C25.6593 53.2447 25.7853 53.87 25.7853 54.598C25.7853 55.3167 25.6593 55.942 25.4073 56.474C25.1646 56.9967 24.8146 57.4027 24.3573 57.692C23.9093 57.9813 23.3819 58.126 22.7753 58.126C22.2526 58.126 21.7859 58.0093 21.3753 57.776C20.9646 57.5427 20.6613 57.2207 20.4653 56.81V60.52H19.3313ZM22.5373 57.216C23.1719 57.216 23.6806 56.992 24.0633 56.544C24.4459 56.0867 24.6373 55.438 24.6373 54.598C24.6373 53.7487 24.4459 53.1 24.0633 52.652C23.6806 52.204 23.1719 51.98 22.5373 51.98C21.9026 51.98 21.3939 52.204 21.0113 52.652C20.6286 53.1 20.4373 53.7487 20.4373 54.598C20.4373 55.438 20.6286 56.0867 21.0113 56.544C21.3939 56.992 21.9026 57.216 22.5373 57.216ZM27.6161 58V51.196H28.7501V54.038H30.0241L32.2501 51.196H33.4961L31.1301 54.262C31.3728 54.3553 31.5921 54.5093 31.7881 54.724C31.9841 54.9387 32.2034 55.2467 32.4461 55.648L33.8461 58H32.6281L31.3961 55.942C31.1628 55.5407 30.9388 55.2747 30.7241 55.144C30.5094 55.0133 30.2061 54.948 29.8141 54.948H28.7501V58H27.6161ZM37.8272 58.126C37.1646 58.126 36.5906 57.9813 36.1052 57.692C35.6199 57.4027 35.2419 56.9967 34.9712 56.474C34.7099 55.942 34.5792 55.3167 34.5792 54.598C34.5792 53.8793 34.7099 53.2587 34.9712 52.736C35.2419 52.204 35.6199 51.7933 36.1052 51.504C36.5906 51.2147 37.1646 51.07 37.8272 51.07C38.4806 51.07 39.0499 51.2147 39.5352 51.504C40.0299 51.7933 40.4079 52.204 40.6692 52.736C40.9399 53.2587 41.0752 53.8793 41.0752 54.598C41.0752 55.3167 40.9399 55.942 40.6692 56.474C40.4079 56.9967 40.0299 57.4027 39.5352 57.692C39.0499 57.9813 38.4806 58.126 37.8272 58.126ZM37.8272 57.216C38.4619 57.216 38.9706 56.992 39.3532 56.544C39.7359 56.0867 39.9272 55.438 39.9272 54.598C39.9272 53.7487 39.7359 53.1 39.3532 52.652C38.9706 52.204 38.4619 51.98 37.8272 51.98C37.1832 51.98 36.6699 52.204 36.2872 52.652C35.9139 53.1 35.7272 53.7487 35.7272 54.598C35.7272 55.438 35.9139 56.0867 36.2872 56.544C36.6699 56.992 37.1832 57.216 37.8272 57.216ZM42.4002 58.154L41.9802 57.258C42.4002 57.0807 42.7315 56.8333 42.9742 56.516C43.2169 56.1893 43.3849 55.7413 43.4782 55.172C43.5809 54.6027 43.6322 53.856 43.6322 52.932V51.196H48.5742V58H47.4402V52.106H44.6962V52.974C44.6962 54.038 44.6169 54.9153 44.4582 55.606C44.3089 56.2967 44.0662 56.8427 43.7302 57.244C43.3942 57.6453 42.9509 57.9487 42.4002 58.154ZM53.6593 58.126C52.9966 58.126 52.4226 57.9813 51.9373 57.692C51.4519 57.4027 51.0739 56.9967 50.8033 56.474C50.5419 55.942 50.4113 55.3167 50.4113 54.598C50.4113 53.8793 50.5419 53.2587 50.8033 52.736C51.0739 52.204 51.4519 51.7933 51.9373 51.504C52.4226 51.2147 52.9966 51.07 53.6593 51.07C54.3126 51.07 54.8819 51.2147 55.3673 51.504C55.8619 51.7933 56.2399 52.204 56.5013 52.736C56.7719 53.2587 56.9073 53.8793 56.9073 54.598C56.9073 55.3167 56.7719 55.942 56.5013 56.474C56.2399 56.9967 55.8619 57.4027 55.3673 57.692C54.8819 57.9813 54.3126 58.126 53.6593 58.126ZM53.6593 57.216C54.2939 57.216 54.8026 56.992 55.1853 56.544C55.5679 56.0867 55.7593 55.438 55.7593 54.598C55.7593 53.7487 55.5679 53.1 55.1853 52.652C54.8026 52.204 54.2939 51.98 53.6593 51.98C53.0153 51.98 52.5019 52.204 52.1193 52.652C51.7459 53.1 51.5593 53.7487 51.5593 54.598C51.5593 55.438 51.7459 56.0867 52.1193 56.544C52.5019 56.992 53.0153 57.216 53.6593 57.216ZM58.747 58V51.196H63.521V52.106H59.881V58H58.747ZM64.8309 58V51.196H65.8669V56.46L69.8009 51.196H70.7669V58H69.7309V52.736L65.7969 58H64.8309ZM77.3747 58V55.242C76.8521 55.5593 76.2501 55.718 75.5687 55.718C74.5981 55.718 73.8794 55.4893 73.4127 55.032C72.9461 54.5653 72.7127 53.8607 72.7127 52.918V51.196H73.8467V52.834C73.8467 53.506 73.9914 53.996 74.2807 54.304C74.5794 54.612 75.0554 54.766 75.7087 54.766C76.0447 54.766 76.3387 54.7287 76.5907 54.654C76.8521 54.5793 77.1087 54.458 77.3607 54.29V51.196H78.4947V58H77.3747ZM83.8113 58.126C82.738 58.126 81.8887 57.8133 81.2633 57.188C80.638 56.5533 80.3253 55.6947 80.3253 54.612C80.3253 53.912 80.4653 53.296 80.7453 52.764C81.0253 52.2227 81.408 51.8073 81.8933 51.518C82.388 51.2193 82.9573 51.07 83.6013 51.07C84.5253 51.07 85.2487 51.3687 85.7713 51.966C86.294 52.554 86.5553 53.366 86.5553 54.402V54.836H81.4313C81.4687 55.6107 81.6927 56.2033 82.1033 56.614C82.514 57.0153 83.0833 57.216 83.8113 57.216C84.222 57.216 84.614 57.1553 84.9873 57.034C85.3607 56.9033 85.7153 56.6933 86.0513 56.404L86.4433 57.202C86.1353 57.4913 85.7433 57.72 85.2673 57.888C84.7913 58.0467 84.306 58.126 83.8113 58.126ZM83.6293 51.91C82.9853 51.91 82.4767 52.1107 82.1033 52.512C81.73 52.9133 81.5107 53.4407 81.4453 54.094H85.5753C85.5473 53.4033 85.3653 52.8667 85.0293 52.484C84.7027 52.1013 84.236 51.91 83.6293 51.91ZM91.2172 58.126C90.5359 58.126 89.9479 57.9813 89.4532 57.692C88.9586 57.3933 88.5759 56.978 88.3052 56.446C88.0439 55.9047 87.9132 55.2747 87.9132 54.556C87.9132 53.4733 88.2072 52.624 88.7952 52.008C89.3832 51.3827 90.1906 51.07 91.2172 51.07C91.6372 51.07 92.0526 51.1447 92.4632 51.294C92.8739 51.4433 93.2146 51.6533 93.4852 51.924L93.0932 52.75C92.8226 52.4887 92.5239 52.2973 92.1972 52.176C91.8799 52.0547 91.5766 51.994 91.2872 51.994C90.5779 51.994 90.0319 52.218 89.6492 52.666C89.2666 53.1047 89.0752 53.7393 89.0752 54.57C89.0752 55.382 89.2666 56.026 89.6492 56.502C90.0319 56.9687 90.5779 57.202 91.2872 57.202C91.5766 57.202 91.8799 57.1413 92.1972 57.02C92.5239 56.8987 92.8226 56.7027 93.0932 56.432L93.4852 57.258C93.2146 57.5287 92.8692 57.7433 92.4492 57.902C92.0386 58.0513 91.6279 58.126 91.2172 58.126ZM94.9364 58V51.196H96.0704V54.038H97.3444L99.5704 51.196H100.816L98.4504 54.262C98.6931 54.3553 98.9124 54.5093 99.1084 54.724C99.3044 54.9387 99.5237 55.2467 99.7664 55.648L101.166 58H99.9484L98.7164 55.942C98.4831 55.5407 98.2591 55.2747 98.0444 55.144C97.8297 55.0133 97.5264 54.948 97.1344 54.948H96.0704V58H94.9364ZM104.462 58.126C103.995 58.126 103.575 58.0373 103.202 57.86C102.838 57.6733 102.548 57.4213 102.334 57.104C102.119 56.7867 102.012 56.432 102.012 56.04C102.012 55.5453 102.138 55.1533 102.39 54.864C102.651 54.5747 103.076 54.3693 103.664 54.248C104.261 54.1173 105.073 54.052 106.1 54.052H106.548V53.618C106.548 53.0393 106.426 52.624 106.184 52.372C105.95 52.1107 105.572 51.98 105.05 51.98C104.639 51.98 104.242 52.0407 103.86 52.162C103.477 52.274 103.085 52.4607 102.684 52.722L102.292 51.896C102.646 51.644 103.076 51.4433 103.58 51.294C104.093 51.1447 104.583 51.07 105.05 51.07C105.927 51.07 106.576 51.2847 106.996 51.714C107.425 52.1433 107.64 52.8107 107.64 53.716V58H106.576V56.824C106.398 57.2253 106.123 57.5427 105.75 57.776C105.386 58.0093 104.956 58.126 104.462 58.126ZM104.644 57.272C105.204 57.272 105.661 57.0807 106.016 56.698C106.37 56.306 106.548 55.8113 106.548 55.214V54.794H106.114C105.358 54.794 104.76 54.8313 104.322 54.906C103.892 54.9713 103.589 55.0927 103.412 55.27C103.244 55.438 103.16 55.6713 103.16 55.97C103.16 56.3527 103.29 56.6653 103.552 56.908C103.822 57.1507 104.186 57.272 104.644 57.272ZM109.292 58L110.342 56.18C110.622 55.6853 110.982 55.3633 111.42 55.214C110.842 55.13 110.394 54.92 110.076 54.584C109.759 54.2387 109.6 53.7907 109.6 53.24C109.6 52.6147 109.806 52.12 110.216 51.756C110.636 51.3827 111.262 51.196 112.092 51.196H115.158V58H114.08V55.41H113.086C112.713 55.41 112.396 55.5033 112.134 55.69C111.882 55.8767 111.677 56.1053 111.518 56.376L110.594 58H109.292ZM112.302 54.584H114.08V51.994H112.302C111.752 51.994 111.346 52.1107 111.084 52.344C110.823 52.568 110.692 52.8807 110.692 53.282C110.692 53.6927 110.823 54.0147 111.084 54.248C111.346 54.472 111.752 54.584 112.302 54.584ZM120.995 58V51.196H122.129V54.038H123.403L125.629 51.196H126.875L124.509 54.262C124.752 54.3553 124.971 54.5093 125.167 54.724C125.363 54.9387 125.582 55.2467 125.825 55.648L127.225 58H126.007L124.775 55.942C124.542 55.5407 124.318 55.2747 124.103 55.144C123.888 55.0133 123.585 54.948 123.193 54.948H122.129V58H120.995ZM127.986 58.154L127.566 57.258C127.986 57.0807 128.317 56.8333 128.56 56.516C128.803 56.1893 128.971 55.7413 129.064 55.172C129.167 54.6027 129.218 53.856 129.218 52.932V51.196H134.16V58H133.026V52.106H130.282V52.974C130.282 54.038 130.203 54.9153 130.044 55.606C129.895 56.2967 129.652 56.8427 129.316 57.244C128.98 57.6453 128.537 57.9487 127.986 58.154ZM136.403 58V51.196H137.439V56.46L141.373 51.196H142.339V58H141.303V52.736L137.369 58H136.403ZM144.579 58V51.196H145.713V54.024H149.423V51.196H150.557V58H149.423V54.948H145.713V58H144.579ZM152.796 58V51.196H153.832V56.46L157.766 51.196H158.732V58H157.696V52.736L153.762 58H152.796ZM160.972 58V51.196H162.106V54.038H163.38L165.606 51.196H166.852L164.486 54.262C164.728 54.3553 164.948 54.5093 165.144 54.724C165.34 54.9387 165.559 55.2467 165.802 55.648L167.202 58H165.984L164.752 55.942C164.518 55.5407 164.294 55.2747 164.08 55.144C163.865 55.0133 163.562 54.948 163.17 54.948H162.106V58H160.972ZM170.497 58.126C170.03 58.126 169.61 58.0373 169.237 57.86C168.873 57.6733 168.583 57.4213 168.369 57.104C168.154 56.7867 168.047 56.432 168.047 56.04C168.047 55.5453 168.173 55.1533 168.425 54.864C168.686 54.5747 169.111 54.3693 169.699 54.248C170.296 54.1173 171.108 54.052 172.135 54.052H172.583V53.618C172.583 53.0393 172.461 52.624 172.219 52.372C171.985 52.1107 171.607 51.98 171.085 51.98C170.674 51.98 170.277 52.0407 169.895 52.162C169.512 52.274 169.12 52.4607 168.719 52.722L168.327 51.896C168.681 51.644 169.111 51.4433 169.615 51.294C170.128 51.1447 170.618 51.07 171.085 51.07C171.962 51.07 172.611 51.2847 173.031 51.714C173.46 52.1433 173.675 52.8107 173.675 53.716V58H172.611V56.824C172.433 57.2253 172.158 57.5427 171.785 57.776C171.421 58.0093 170.991 58.126 170.497 58.126ZM170.679 57.272C171.239 57.272 171.696 57.0807 172.051 56.698C172.405 56.306 172.583 55.8113 172.583 55.214V54.794H172.149C171.393 54.794 170.795 54.8313 170.357 54.906C169.927 54.9713 169.624 55.0927 169.447 55.27C169.279 55.438 169.195 55.6713 169.195 55.97C169.195 56.3527 169.325 56.6653 169.587 56.908C169.857 57.1507 170.221 57.272 170.679 57.272Z" fill="#08133B"/>
<path d="M56.761 14.1801C55.5168 14.1801 54.4527 13.9345 53.5687 13.4434C52.6847 12.9523 52.0026 12.2647 51.5224 11.3807C51.0532 10.4858 50.8185 9.43267 50.8185 8.22126C50.8185 7.02077 51.0532 5.97852 51.5224 5.09452C52.0026 4.19961 52.6847 3.50659 53.5687 3.01548C54.4527 2.52437 55.5168 2.27882 56.761 2.27882C57.5249 2.27882 58.2561 2.39886 58.9546 2.63896C59.6531 2.87906 60.226 3.20647 60.6735 3.62119L59.8877 5.63474C59.3966 5.25277 58.9 4.97447 58.398 4.79985C57.9069 4.61432 57.3885 4.52156 56.8428 4.52156C55.7405 4.52156 54.9057 4.84351 54.3381 5.48741C53.7816 6.1204 53.5033 7.03168 53.5033 8.22126C53.5033 9.41084 53.7816 10.3276 54.3381 10.9715C54.9057 11.6154 55.7405 11.9373 56.8428 11.9373C57.3885 11.9373 57.9069 11.85 58.398 11.6754C58.9 11.4899 59.3966 11.2061 59.8877 10.8241L60.6735 12.8377C60.226 13.2415 59.6531 13.5689 58.9546 13.8199C58.2561 14.06 57.5249 14.1801 56.761 14.1801ZM63.9577 14V7.89385H61.3057V5.96215H69.0816V7.89385H66.4296V14H63.9577ZM72.9979 14.1801C72.3977 14.1801 71.8684 14.0655 71.41 13.8363C70.9516 13.6071 70.586 13.2961 70.3132 12.9032C70.0513 12.5103 69.9203 12.0683 69.9203 11.5772C69.9203 10.9988 70.0731 10.5349 70.3787 10.1857C70.6843 9.83647 71.1808 9.59091 71.8684 9.44904C72.5559 9.29625 73.4672 9.21985 74.6022 9.21985H75.1916V8.94156C75.1916 8.46136 75.0824 8.12304 74.8642 7.92659C74.6459 7.71923 74.2748 7.61556 73.751 7.61556C73.3144 7.61556 72.8506 7.68649 72.3595 7.82837C71.8793 7.95933 71.3991 8.16123 70.9189 8.43407L70.2477 6.78067C70.5315 6.59514 70.8752 6.42598 71.279 6.27319C71.6938 6.1204 72.1249 6.0058 72.5723 5.92941C73.0198 5.8421 73.4454 5.79844 73.8492 5.79844C75.0933 5.79844 76.021 6.0822 76.6322 6.6497C77.2433 7.2063 77.5489 8.07393 77.5489 9.25259V14H75.2407V12.7886C75.077 13.2142 74.7987 13.5525 74.4058 13.8036C74.0238 14.0546 73.5545 14.1801 72.9979 14.1801ZM73.5545 12.5267C74.0129 12.5267 74.4003 12.3684 74.7168 12.0519C75.0333 11.7354 75.1916 11.3262 75.1916 10.8241V10.4967H74.6186C73.7783 10.4967 73.1835 10.5731 72.8342 10.7259C72.485 10.8678 72.3104 11.1188 72.3104 11.479C72.3104 11.7845 72.4141 12.0356 72.6214 12.232C72.8397 12.4284 73.1507 12.5267 73.5545 12.5267ZM79.6646 14V5.96215H84.232C85.3233 5.96215 86.0982 6.15314 86.5566 6.53511C87.0149 6.90617 87.2441 7.41911 87.2441 8.07393C87.2441 8.47773 87.1295 8.83242 86.9003 9.138C86.6821 9.44358 86.3765 9.66731 85.9836 9.80919C86.5184 9.94015 86.9113 10.1748 87.1623 10.5131C87.4133 10.8514 87.5388 11.2607 87.5388 11.7409C87.5388 12.4284 87.266 12.9796 86.7203 13.3943C86.1855 13.7981 85.3997 14 84.3629 14H79.6646ZM81.9401 9.17074H83.97C84.2975 9.17074 84.5539 9.09435 84.7395 8.94156C84.925 8.78877 85.0178 8.57049 85.0178 8.28674C85.0178 8.00299 84.925 7.79017 84.7395 7.6483C84.5539 7.50642 84.2975 7.43548 83.97 7.43548H81.9401V9.17074ZM81.9401 12.5267H84.1174C84.9141 12.5267 85.3124 12.2102 85.3124 11.5772C85.3124 10.9442 84.9141 10.6277 84.1174 10.6277H81.9401V12.5267ZM89.1767 16.9467V5.96215H91.5995V7.15719C91.8178 6.74247 92.1507 6.41506 92.5981 6.17496C93.0565 5.92395 93.5694 5.79844 94.1369 5.79844C94.8354 5.79844 95.4466 5.9676 95.9704 6.30593C96.5052 6.64425 96.9199 7.12444 97.2146 7.74652C97.5092 8.36859 97.6566 9.11072 97.6566 9.97289C97.6566 10.8351 97.5092 11.5826 97.2146 12.2156C96.9199 12.8377 96.5052 13.3234 95.9704 13.6726C95.4466 14.0109 94.8354 14.1801 94.1369 14.1801C93.6022 14.1801 93.1111 14.0655 92.6636 13.8363C92.2271 13.6071 91.8887 13.3015 91.6486 12.9196V16.9467H89.1767ZM93.4003 12.3302C93.9241 12.3302 94.3498 12.1392 94.6772 11.7573C95.0046 11.3753 95.1683 10.7805 95.1683 9.97289C95.1683 9.1762 95.0046 8.59232 94.6772 8.22126C94.3498 7.83928 93.9241 7.6483 93.4003 7.6483C92.8655 7.6483 92.4344 7.83928 92.107 8.22126C91.7796 8.59232 91.6159 9.1762 91.6159 9.97289C91.6159 10.7805 91.7796 11.3753 92.107 11.7573C92.4344 12.1392 92.8655 12.3302 93.4003 12.3302ZM103.288 14.1801C102.425 14.1801 101.672 14.0109 101.028 13.6726C100.395 13.3234 99.9044 12.8377 99.5551 12.2156C99.2059 11.5826 99.0313 10.8351 99.0313 9.97289C99.0313 9.12163 99.2059 8.38496 99.5551 7.76289C99.9044 7.1299 100.395 6.64425 101.028 6.30593C101.672 5.9676 102.425 5.79844 103.288 5.79844C104.15 5.79844 104.897 5.9676 105.53 6.30593C106.174 6.64425 106.671 7.1299 107.02 7.76289C107.38 8.38496 107.56 9.12163 107.56 9.97289C107.56 10.8351 107.38 11.5826 107.02 12.2156C106.671 12.8377 106.174 13.3234 105.53 13.6726C104.897 14.0109 104.15 14.1801 103.288 14.1801ZM103.288 12.3302C103.811 12.3302 104.237 12.1392 104.564 11.7573C104.903 11.3753 105.072 10.7805 105.072 9.97289C105.072 9.1762 104.903 8.59232 104.564 8.22126C104.237 7.83928 103.811 7.6483 103.288 7.6483C102.764 7.6483 102.338 7.83928 102.011 8.22126C101.683 8.59232 101.52 9.1762 101.52 9.97289C101.52 10.7805 101.683 11.3753 102.011 11.7573C102.338 12.1392 102.764 12.3302 103.288 12.3302ZM109.304 14V5.96215H117.26V14H114.788V7.87748H111.776V14H109.304ZM123.271 14.1801C122.409 14.1801 121.656 14.0109 121.012 13.6726C120.379 13.3234 119.888 12.8377 119.539 12.2156C119.189 11.5826 119.015 10.8351 119.015 9.97289C119.015 9.12163 119.189 8.38496 119.539 7.76289C119.888 7.1299 120.379 6.64425 121.012 6.30593C121.656 5.9676 122.409 5.79844 123.271 5.79844C124.133 5.79844 124.881 5.9676 125.514 6.30593C126.158 6.64425 126.654 7.1299 127.003 7.76289C127.364 8.38496 127.544 9.12163 127.544 9.97289C127.544 10.8351 127.364 11.5826 127.003 12.2156C126.654 12.8377 126.158 13.3234 125.514 13.6726C124.881 14.0109 124.133 14.1801 123.271 14.1801ZM123.271 12.3302C123.795 12.3302 124.22 12.1392 124.548 11.7573C124.886 11.3753 125.055 10.7805 125.055 9.97289C125.055 9.1762 124.886 8.59232 124.548 8.22126C124.22 7.83928 123.795 7.6483 123.271 7.6483C122.747 7.6483 122.321 7.83928 121.994 8.22126C121.667 8.59232 121.503 9.1762 121.503 9.97289C121.503 10.7805 121.667 11.3753 121.994 11.7573C122.321 12.1392 122.747 12.3302 123.271 12.3302ZM129.046 14.2456L128.309 12.2975C128.975 12.112 129.444 11.7518 129.717 11.217C129.99 10.6714 130.126 9.83101 130.126 8.696V5.96215H136.952V14H134.481V7.87748H132.385V8.77785C132.385 10.4258 132.118 11.6972 131.583 12.5921C131.048 13.4871 130.202 14.0382 129.046 14.2456ZM139.119 14V5.96215H141.591V8.51593H143.523C145.705 8.51593 146.797 9.41084 146.797 11.2007C146.797 12.0301 146.497 12.7067 145.896 13.2306C145.307 13.7435 144.516 14 143.523 14H139.119ZM141.591 12.4121H143.097C143.545 12.4121 143.894 12.3139 144.145 12.1174C144.407 11.921 144.538 11.6263 144.538 11.2334C144.538 10.8405 144.412 10.5513 144.161 10.3658C143.91 10.1802 143.556 10.0875 143.097 10.0875H141.591V12.4121ZM51.1623 33V21.4589H56.4336C57.7214 21.4589 58.7145 21.7863 59.413 22.4411C60.1114 23.085 60.4607 23.9854 60.4607 25.1422C60.4607 26.2991 60.1114 27.2049 59.413 27.8597C58.7145 28.5145 57.7214 28.8419 56.4336 28.8419H53.6997V33H51.1623ZM53.6997 26.8775H56.0079C57.3503 26.8775 58.0215 26.2991 58.0215 25.1422C58.0215 24.0072 57.3503 23.4397 56.0079 23.4397H53.6997V26.8775ZM65.8221 33.1801C64.8726 33.1801 64.0541 33.0109 63.3665 32.6726C62.6899 32.3234 62.166 31.8377 61.795 31.2156C61.4348 30.5826 61.2548 29.8405 61.2548 28.9893C61.2548 28.1598 61.4294 27.4341 61.7786 26.812C62.1388 26.179 62.6244 25.6879 63.2356 25.3387C63.8576 24.9785 64.5725 24.7984 65.3801 24.7984C66.5478 24.7984 67.4755 25.1695 68.1631 25.9116C68.8506 26.6428 69.1944 27.636 69.1944 28.891V29.5131H63.6121C63.6994 30.1461 63.9286 30.6099 64.2996 30.9046C64.6816 31.1883 65.2055 31.3302 65.8712 31.3302C66.3077 31.3302 66.7497 31.2647 67.1972 31.1338C67.6447 31.0028 68.0485 30.8009 68.4086 30.5281L69.0634 32.1815C68.6596 32.4871 68.1631 32.7326 67.5737 32.9181C66.9953 33.0928 66.4114 33.1801 65.8221 33.1801ZM65.4783 26.4355C64.9545 26.4355 64.5288 26.5937 64.2014 26.9102C63.8849 27.2267 63.6885 27.6687 63.6121 28.2362H67.1481C67.0826 27.0357 66.526 26.4355 65.4783 26.4355ZM73.6054 33.1801C73.0052 33.1801 72.4759 33.0655 72.0175 32.8363C71.5591 32.6071 71.1935 32.2961 70.9207 31.9032C70.6588 31.5103 70.5278 31.0683 70.5278 30.5772C70.5278 29.9988 70.6806 29.5349 70.9862 29.1857C71.2918 28.8365 71.7883 28.5909 72.4759 28.449C73.1634 28.2962 74.0747 28.2199 75.2097 28.2199H75.7991V27.9416C75.7991 27.4614 75.6899 27.123 75.4717 26.9266C75.2534 26.7192 74.8823 26.6156 74.3585 26.6156C73.9219 26.6156 73.4581 26.6865 72.967 26.8284C72.4868 26.9593 72.0066 27.1612 71.5264 27.4341L70.8552 25.7807C71.139 25.5951 71.4827 25.426 71.8865 25.2732C72.3013 25.1204 72.7323 25.0058 73.1798 24.9294C73.6273 24.8421 74.0529 24.7984 74.4567 24.7984C75.7008 24.7984 76.6285 25.0822 77.2397 25.6497C77.8508 26.2063 78.1564 27.0739 78.1564 28.2526V33H75.8482V31.7886C75.6845 32.2142 75.4062 32.5525 75.0133 32.8036C74.6313 33.0546 74.162 33.1801 73.6054 33.1801ZM74.162 31.5267C74.6204 31.5267 75.0078 31.3684 75.3243 31.0519C75.6408 30.7354 75.7991 30.3262 75.7991 29.8241V29.4967H75.2261C74.3858 29.4967 73.791 29.5731 73.4417 29.7259C73.0925 29.8678 72.9179 30.1188 72.9179 30.479C72.9179 30.7845 73.0216 31.0356 73.2289 31.232C73.4472 31.4284 73.7582 31.5267 74.162 31.5267ZM84.2338 33.1801C82.8914 33.1801 81.8273 32.7872 81.0415 32.0014C80.2667 31.2047 79.8792 30.0206 79.8792 28.449V27.2867C79.8792 25.6497 80.2612 24.4056 81.0252 23.5543C81.8 22.6921 82.9351 22.0973 84.4302 21.7699L87.2132 21.1315L87.9171 23.0632L84.6103 23.7835C83.8245 23.9581 83.2243 24.2855 82.8095 24.7657C82.3948 25.235 82.1875 25.8516 82.1875 26.6156V26.7138C82.4276 26.2445 82.7768 25.8625 83.2352 25.5679C83.7045 25.2732 84.2829 25.1259 84.9704 25.1259C85.6252 25.1259 86.2091 25.2841 86.7221 25.6006C87.2459 25.9171 87.6552 26.37 87.9498 26.9593C88.2554 27.5378 88.4082 28.2308 88.4082 29.0384C88.4082 29.8787 88.2336 30.6099 87.8844 31.232C87.5351 31.8541 87.044 32.3343 86.411 32.6726C85.789 33.0109 85.0632 33.1801 84.2338 33.1801ZM84.1519 31.3302C84.7194 31.3302 85.156 31.1447 85.4615 30.7736C85.7671 30.4026 85.9199 29.8623 85.9199 29.153C85.9199 28.4545 85.7617 27.9143 85.4452 27.5323C85.1396 27.1503 84.7031 26.9593 84.1355 26.9593C83.579 26.9593 83.1424 27.1503 82.8259 27.5323C82.5203 27.9034 82.3675 28.4218 82.3675 29.0875C82.3675 29.8296 82.5203 30.3917 82.8259 30.7736C83.1315 31.1447 83.5735 31.3302 84.1519 31.3302ZM90.1519 33V24.9621H92.3783V29.8241L96.0452 24.9621H98.0752V33H95.8488V28.138L92.1818 33H90.1519ZM100.158 33.2456L99.421 31.2975C100.087 31.112 100.556 30.7518 100.829 30.217C101.102 29.6714 101.238 28.831 101.238 27.696V24.9621H108.065V33H105.593V26.8775H103.497V27.7779C103.497 29.4258 103.23 30.6972 102.695 31.5921C102.16 32.4871 101.314 33.0382 100.158 33.2456ZM110.231 33V24.9621H112.458V29.8241L116.125 24.9621H118.154V33H115.928V28.138L112.261 33H110.231ZM122.021 33V26.8939H119.369V24.9621H127.145V26.8939H124.493V33H122.021ZM131.062 33.1801C130.461 33.1801 129.932 33.0655 129.474 32.8363C129.015 32.6071 128.65 32.2961 128.377 31.9032C128.115 31.5103 127.984 31.0683 127.984 30.5772C127.984 29.9988 128.137 29.5349 128.442 29.1857C128.748 28.8365 129.244 28.5909 129.932 28.449C130.62 28.2962 131.531 28.2199 132.666 28.2199H133.255V27.9416C133.255 27.4614 133.146 27.123 132.928 26.9266C132.71 26.7192 132.338 26.6156 131.815 26.6156C131.378 26.6156 130.914 26.6865 130.423 26.8284C129.943 26.9593 129.463 27.1612 128.983 27.4341L128.311 25.7807C128.595 25.5951 128.939 25.426 129.343 25.2732C129.757 25.1204 130.189 25.0058 130.636 24.9294C131.083 24.8421 131.509 24.7984 131.913 24.7984C133.157 24.7984 134.085 25.0822 134.696 25.6497C135.307 26.2063 135.613 27.0739 135.613 28.2526V33H133.304V31.7886C133.141 32.2142 132.862 32.5525 132.469 32.8036C132.087 33.0546 131.618 33.1801 131.062 33.1801ZM131.618 31.5267C132.077 31.5267 132.464 31.3684 132.78 31.0519C133.097 30.7354 133.255 30.3262 133.255 29.8241V29.4967H132.682C131.842 29.4967 131.247 29.5731 130.898 29.7259C130.549 29.8678 130.374 30.1188 130.374 30.479C130.374 30.7845 130.478 31.0356 130.685 31.232C130.903 31.4284 131.214 31.5267 131.618 31.5267ZM144.718 35.1281V33H137.728V24.9621H140.2V31.0847H143V24.9621H145.471V31.0847H146.814V35.1281H144.718ZM148.168 33V24.9621H150.394V29.8241L154.061 24.9621H156.091V33H153.864V28.138L150.198 33H148.168ZM157.535 33L158.714 30.9864C159.019 30.4299 159.423 30.0588 159.925 29.8733C158.594 29.6113 157.928 28.8256 157.928 27.5159C157.928 26.7192 158.201 26.0972 158.746 25.6497C159.292 25.1913 160.089 24.9621 161.136 24.9621H165.491V33H163.215V30.3971H162.544C162.282 30.3971 162.048 30.4735 161.84 30.6263C161.644 30.7682 161.48 30.9537 161.349 31.1829L160.318 33H157.535ZM161.66 28.8092H163.215V26.5501H161.66C161.191 26.5501 160.836 26.6483 160.596 26.8447C160.367 27.0412 160.252 27.314 160.252 27.6633C160.252 28.0234 160.367 28.3072 160.596 28.5145C160.836 28.711 161.191 28.8092 161.66 28.8092Z" fill="#08133B"/>
<path d="M1.11765 20.691C0.500388 20.691 0 21.1914 0 21.8087V25.6889C0 26.9234 1.00078 27.9242 2.23529 27.9242H7.43743C8.67195 27.9242 9.67273 28.925 9.67273 30.1595V35.7647C9.67273 36.9993 10.6735 38 11.908 38H25.7465C26.981 38 27.9818 36.9993 27.9818 35.7647V27.9242H35.7647C36.9992 27.9242 38 26.9234 38 25.6889V21.8087C38 21.1914 37.4996 20.691 36.8824 20.691H27.3966C27.2801 20.691 27.1665 20.7275 27.0717 20.7952L25.1754 22.1507C24.9167 22.3356 24.5562 22.2677 24.3825 22.0016L23.3346 20.3966C23.084 20.0128 22.5033 20.0773 22.3431 20.5068L19.7512 27.4542C19.5568 27.9755 18.8031 27.9234 18.6822 27.3803L16.477 17.4726C16.3565 16.9309 15.6053 16.8772 15.4089 17.3963L13.4539 22.5633C13.289 22.9989 12.6948 23.0535 12.4534 22.6552L10.5602 19.5323C10.36 19.2022 9.89343 19.1696 9.64935 19.4687L8.81953 20.4855C8.7134 20.6156 8.55443 20.691 8.38658 20.691H1.11765Z" fill="#F74B4B"/>
<path d="M9.67273 2.23529C9.67273 1.00078 10.6735 0 11.908 0H25.7465C26.981 0 27.9818 1.00078 27.9818 2.23529V7.53448C27.9818 8.769 28.9826 9.76977 30.2171 9.76977H35.7647C36.9992 9.76977 38 10.7705 38 12.0051V18.1364C38 18.7537 37.4996 19.2541 36.8824 19.2541H27.1015C26.8184 19.2541 26.5425 19.3429 26.3125 19.508C25.6855 19.958 24.8096 19.7933 24.3889 19.1462L23.5182 17.8069C23.0176 17.0368 21.8533 17.1659 21.5335 18.0269L20.8304 19.9195C20.4425 20.9638 18.9326 20.8598 18.6915 19.7721L17.3134 13.554C17.073 12.469 15.5682 12.3618 15.1764 13.4018L13.4997 17.8521C13.1706 18.7255 11.9793 18.8347 11.497 18.0357L11.1797 17.5101C10.7797 16.8475 9.84363 16.7822 9.35553 17.3829L8.1704 18.8413C7.95817 19.1024 7.63956 19.2541 7.30303 19.2541H1.11765C0.500388 19.2541 0 18.7537 0 18.1364V12.0051C0 10.7705 1.00078 9.76977 2.23529 9.76977H7.43743C8.67195 9.76977 9.67273 8.769 9.67273 7.53448V2.23529Z" fill="#4B94F7"/>
</svg>
